<?xml version="1.0" encoding="UTF-8"?>
<svg version="1.1" xmlns="http://www.w3.org/2000/svg" width="1080" height="1080">
<path d="M0 0 C356.4 0 712.8 0 1080 0 C1080 356.4 1080 712.8 1080 1080 C723.6 1080 367.2 1080 0 1080 C0 723.6 0 367.2 0 0 Z " fill="#FEFEFE" transform="translate(0,0)"/>
<path d="M0 0 C10.56 0 21.12 0 32 0 C32.99 2.97 33.98 5.94 35 9 C35.66 9.33 36.32 9.66 37 10 C37.62852934 12.33247815 38.15535246 14.69291467 38.625 17.0625 C38.88539063 18.35285156 39.14578125 19.64320313 39.4140625 20.97265625 C39.60742188 21.97167969 39.80078125 22.97070312 40 24 C40.66 24 41.32 24 42 24 C42.50615298 25.26839526 43.00469099 26.53983102 43.5 27.8125 C43.91765625 28.87404297 43.91765625 28.87404297 44.34375 29.95703125 C45 32 45 32 45 35 C45.66 35 46.32 35 47 35 C47 37.64 47 40.28 47 43 C47.99 43 48.98 43 50 43 C50 43.99 50 44.98 50 46 C50.66 46 51.32 46 52 46 C52.4640625 47.4540625 52.4640625 47.4540625 52.9375 48.9375 C53.69523342 51.84065792 53.69523342 51.84065792 55 53 C55.04092937 55.33297433 55.04241723 57.66705225 55 60 C55.66 60 56.32 60 57 60 C57 61.98 57 63.96 57 66 C57.66 66 58.32 66 59 66 C62.12940055 69.97193147 62.29162929 73.04230204 62 78 C62.99 78 63.98 78 65 78 C65.25394531 78.64066406 65.50789063 79.28132813 65.76953125 79.94140625 C67.35064537 83.91491776 68.93086373 87.885579 70.625 91.8125 C71.46479029 93.75928657 72.28299156 95.71580218 73.0625 97.6875 C74.61592774 102.1270911 74.61592774 102.1270911 78 105 C78.30859375 106.85546875 78.30859375 106.85546875 78.4375 109.1875 C78.81861719 113.43996547 79.98688192 116.20604669 82 120 C82.4799059 121.6605835 82.93644771 123.3280194 83.375 125 C84.32034254 128.34121068 85.23934757 130.66114978 87.5625 133.25 C91.07164423 137.20903452 91.82107124 140.63566823 92.5 145.8125 C92.665 146.864375 92.83 147.91625 93 149 C93.66 149.33 94.32 149.66 95 150 C96.31745857 153.87918356 97 156.88375865 97 161 C97.99 161 98.98 161 100 161 C100.12375 161.969375 100.2475 162.93875 100.375 163.9375 C100.58125 164.948125 100.7875 165.95875 101 167 C101.66 167.33 102.32 167.66 103 168 C103.96484375 170.0390625 103.96484375 170.0390625 104.9375 172.625 C106.10759579 175.69431843 107.3034384 178.70905372 108.6875 181.6875 C110.06598166 185.16652515 110.51198469 188.30502692 111 192 C111.95584438 194.33588323 111.95584438 194.33588323 113 196 C113.66 196 114.32 196 115 196 C116.17076699 199.98060777 117.25749403 203.91621717 118 208 C118.66 208 119.32 208 120 208 C122.85996981 215.03992568 125.43816311 222.18408432 128.0234375 229.328125 C128.86992558 231.64411638 129.74164311 233.94791841 130.625 236.25 C131.57630814 238.84447675 132.36807038 241.28359455 133.0625 243.9375 C133.5265625 245.4534375 133.5265625 245.4534375 134 247 C134.66 247.33 135.32 247.66 136 248 C137.88186002 251.0318856 138 252.24517355 138 256 C138.66 256 139.32 256 140 256 C140.13277344 256.61488281 140.26554687 257.22976563 140.40234375 257.86328125 C140.57894531 258.67152344 140.75554687 259.47976563 140.9375 260.3125 C141.11152344 261.11300781 141.28554688 261.91351563 141.46484375 262.73828125 C141.99886159 265.145401 141.99886159 265.145401 143 268 C143.66 268.33 144.32 268.66 145 269 C145 271.64 145 274.28 145 277 C145.99 277 146.98 277 148 277 C148.19335938 277.55429687 148.38671875 278.10859375 148.5859375 278.6796875 C148.97652344 279.76636719 148.97652344 279.76636719 149.375 280.875 C149.75785156 281.95394531 149.75785156 281.95394531 150.1484375 283.0546875 C150.93877783 285.18157994 150.93877783 285.18157994 153 287 C153.125 290.125 153.125 290.125 153 293 C153.66 293 154.32 293 155 293 C155.268125 294.0725 155.53625 295.145 155.8125 296.25 C156.73243524 299.87275529 156.73243524 299.87275529 158.5 302 C160.58993944 304.78658592 161.1053782 307.64516824 162 311 C162.459671 312.3816397 162.93926633 313.75679355 163.4375 315.125 C163.66308594 315.74632812 163.88867188 316.36765625 164.12109375 317.0078125 C164.9958496 319.11696912 164.9958496 319.11696912 166.47265625 321.3671875 C168.62548767 325.07820636 169.6868806 328.97714329 170.9375 333.0625 C171.90785797 336.04002299 171.90785797 336.04002299 173.59765625 338.66015625 C175 341 175 341 175.4375 344.4375 C176.08924837 348.5652397 177.58762211 350.63729143 180 354 C180.69822617 355.65369357 181.37498605 357.31727014 182 359 C182.33 359.33 182.66 359.66 183 360 C183.04063832 361.66617115 183.042721 363.33388095 183 365 C183.99 365 184.98 365 186 365 C186.2475 365.94875 186.495 366.8975 186.75 367.875 C188.51061298 374.04338874 191.04026752 379.94526503 193.75 385.75 C195.03699825 389.09619545 195.25966102 391.4512994 195 395 C195.99 395 196.98 395 198 395 C198.185625 396.4540625 198.185625 396.4540625 198.375 397.9375 C198.58125 398.948125 198.7875 399.95875 199 401 C199.66 401.33 200.32 401.66 201 402 C201.96484375 404.0390625 201.96484375 404.0390625 202.9375 406.625 C204.10624228 409.6793711 205.28608512 412.70382674 206.625 415.6875 C208.55439066 420.33557749 209.82728067 425.11366945 211 430 C211.66 430 212.32 430 213 430 C213.309375 431.134375 213.61875 432.26875 213.9375 433.4375 C214.62924531 436.78775099 214.62924531 436.78775099 216 438 C216.04092937 440.33297433 216.04241723 442.66705225 216 445 C216.66 445 217.32 445 218 445 C218.19335938 445.63808594 218.38671875 446.27617188 218.5859375 446.93359375 C218.84632813 447.75988281 219.10671875 448.58617187 219.375 449.4375 C219.75785156 450.67306641 219.75785156 450.67306641 220.1484375 451.93359375 C220.80882227 454.17798016 220.80882227 454.17798016 223 455 C223 457.64 223 460.28 223 463 C223.99 463 224.98 463 226 463 C226 463.99 226 464.98 226 466 C226.66 466 227.32 466 228 466 C228 468.31 228 470.62 228 473 C228.99 473 229.98 473 231 473 C231 474.98 231 476.96 231 479 C231.66 479 232.32 479 233 479 C233.268125 479.86625 233.53625 480.7325 233.8125 481.625 C234.89705495 485.00599979 234.89705495 485.00599979 236.625 487.9375 C238.22762561 491.50698432 238.23221171 494.12980492 238 498 C238.66 498 239.32 498 240 498 C240 499.32 240 500.64 240 502 C241.32 502 242.64 502 244 502 C244.19335938 502.84304688 244.38671875 503.68609375 244.5859375 504.5546875 C244.84632813 505.65039062 245.10671875 506.74609375 245.375 507.875 C245.75785156 509.51082031 245.75785156 509.51082031 246.1484375 511.1796875 C246.78906215 514.10408455 246.78906215 514.10408455 249 516 C249.65513921 517.43615671 250.25144472 518.89954399 250.8125 520.375 C252.39700698 524.4554033 254.01521167 528.51710888 255.6875 532.5625 C256.10386719 533.57441406 256.52023437 534.58632813 256.94921875 535.62890625 C257.78985057 537.90984325 257.78985057 537.90984325 259 539 C259.04063832 540.66617115 259.042721 542.33388095 259 544 C259.66 544 260.32 544 261 544 C261.12375 545.5159375 261.12375 545.5159375 261.25 547.0625 C261.65195685 550.03818058 262.46260124 552.02979807 264.0625 554.5625 C266.08841141 558.15685895 266.39373753 559.96419027 266 564 C266.66 564 267.32 564 268 564 C268.33 565.98 268.66 567.96 269 570 C269.66 570 270.32 570 271 570 C271.50615298 571.26839526 272.00469099 572.53983102 272.5 573.8125 C272.7784375 574.52019531 273.056875 575.22789062 273.34375 575.95703125 C274 578 274 578 274 581 C274.99 581 275.98 581 277 581 C278.45184478 585.53701494 279.23509196 589.18061476 279 594 C279.66 594 280.32 594 281 594 C281 595.65 281 597.3 281 599 C281.99 599 282.98 599 284 599 C287 605.5 287 605.5 287 610 C287.66 610 288.32 610 289 610 C289 611.65 289 613.3 289 615 C289.99 615 290.98 615 292 615 C292.144375 616.216875 292.28875 617.43375 292.4375 618.6875 C292.82780953 621.82670377 293.32351856 624.9075134 294 628 C294.99 628 295.98 628 297 628 C297.25523437 629.17755859 297.25523437 629.17755859 297.515625 630.37890625 C298.96425182 636.65885761 300.61738202 641.54416455 304 647 C304.70626239 648.98636298 305.36893571 650.98848259 306 653 C306.67411173 654.77597306 307.36262973 656.5465191 308.0625 658.3125 C308.40410156 659.17488281 308.74570312 660.03726563 309.09765625 660.92578125 C309.82744698 662.94955776 309.82744698 662.94955776 311 664 C311.144375 665.0725 311.28875 666.145 311.4375 667.25 C311.9313074 670.54204932 312.52042112 673.04084224 314 676 C314.66 676.33 315.32 676.66 316 677 C316.74482287 679.67259973 317.40322078 682.29694119 318 685 C318.32953642 686.33427682 318.66173853 687.66790839 319 689 C319.66 689 320.32 689 321 689 C321 691.64 321 694.28 321 697 C321.99 697 322.98 697 324 697 C324.1546875 697.928125 324.1546875 697.928125 324.3125 698.875 C324.87525373 701.36526484 324.87525373 701.36526484 328 703 C328 703.99 328 704.98 328 706 C328.99 706 329.98 706 331 706 C331 706.99 331 707.98 331 709 C333.64 709 336.28 709 339 709 C339 709.99 339 710.98 339 712 C339.63808594 711.98839844 340.27617188 711.97679687 340.93359375 711.96484375 C342.17302734 711.95130859 342.17302734 711.95130859 343.4375 711.9375 C344.26121094 711.92589844 345.08492187 711.91429687 345.93359375 711.90234375 C348 712 348 712 349 713 C350.134375 713.144375 351.26875 713.28875 352.4375 713.4375 C356 714 356 714 358 716 C359.98821313 716.39764263 361.98944339 716.73775349 364 717 C364 717.99 364 718.98 364 720 C365.7325 719.938125 365.7325 719.938125 367.5 719.875 C371.94481301 719.85912567 375.73724131 720.78206895 380 722 C380 726.62 380 731.24 380 736 C360.47697237 736.02312447 340.9539486 736.04098205 321.43091011 736.05181217 C312.36653299 736.05697389 303.30216453 736.06401423 294.23779297 736.07543945 C286.33956868 736.08539008 278.44135065 736.09185434 270.54312027 736.09408849 C266.3590218 736.09539495 262.17494127 736.09847675 257.99084854 736.10573006 C254.05603628 736.11249623 250.12124941 736.11461573 246.18643188 736.11310768 C244.7391941 736.11338374 243.29195551 736.11538533 241.84472275 736.11920547 C239.87485105 736.12415195 237.90496586 736.12239538 235.93508911 736.12025452 C234.83078112 736.12117631 233.72647312 736.1220981 232.58870125 736.12304783 C230 736 230 736 228 735 C225.17956274 734.72579082 222.35946953 734.5538093 219.53125 734.37890625 C217 734 217 734 215 732 C213.09255184 731.61550947 213.09255184 731.61550947 211 731.5 C207.22222222 731.22222222 207.22222222 731.22222222 205 729 C203.989375 728.835 202.97875 728.67 201.9375 728.5 C200.968125 728.335 199.99875 728.17 199 728 C198.67 727.34 198.34 726.68 198 726 C195.67843403 725.59270772 193.3431213 725.25561323 191 725 C191 724.34 191 723.68 191 723 C190.21625 723.04125 189.4325 723.0825 188.625 723.125 C186 723 186 723 184 721 C181.67826495 720.42489132 179.35561652 720.0490056 176.99609375 719.66015625 C176.33738281 719.44230469 175.67867187 719.22445312 175 719 C174.67 718.01 174.34 717.02 174 716 C171.67793475 715.29508733 169.34406932 714.62787571 167 714 C166.67 713.34 166.34 712.68 166 712 C165.01 711.67 164.02 711.34 163 711 C163 710.01 163 709.02 163 708 C162.34 708 161.68 708 161 708 C161 707.34 161 706.68 161 706 C160.34 706 159.68 706 159 706 C159 705.01 159 704.02 159 703 C158.01 703 157.02 703 156 703 C156 702.34 156 701.68 156 701 C155.4225 700.938125 154.845 700.87625 154.25 700.8125 C151.07551517 699.66615826 149.87151425 697.74043158 148 695 C148 694.34 148 693.68 148 693 C146.68 693 145.36 693 144 693 C142.375 690.625 142.375 690.625 141 688 C140.34 687.34 139.68 686.68 139 686 C139 685.01 139 684.02 139 683 C138.01 683 137.02 683 136 683 C134.68359375 681.3203125 134.68359375 681.3203125 133.4375 679.125 C132.05877768 676.72834251 130.96772446 674.96772446 129 673 C128.875 670.375 128.875 670.375 129 668 C128.34 668 127.68 668 127 668 C126.67 666.35 126.34 664.7 126 663 C125.01 662.67 124.02 662.34 123 662 C123 661.34 123 660.68 123 660 C122.34 660 121.68 660 121 660 C120.87625 659.360625 120.7525 658.72125 120.625 658.0625 C120.41875 657.381875 120.2125 656.70125 120 656 C119.34 655.67 118.68 655.34 118 655 C117.52132174 653.39300869 117.05202381 651.78266218 116.62890625 650.16015625 C115.03034901 644.66945966 112.63212473 639.40665565 110.3125 634.1875 C109 631 109 631 108.4375 628.125 C108.293125 627.42375 108.14875 626.7225 108 626 C107.34 625.67 106.68 625.34 106 625 C104.6537933 622.13931076 103.80056389 619.29610786 102.9375 616.25 C102.3333058 613.1721649 102.3333058 613.1721649 101 612 C100.95936168 610.33382885 100.957279 608.66611905 101 607 C100.34 607 99.68 607 99 607 C95.57142857 599.71428571 95.57142857 599.71428571 96 595 C95.34 595 94.68 595 94 595 C93.731875 594.13375 93.46375 593.2675 93.1875 592.375 C91.6944483 588.13158992 89.8208959 584.31343344 87.4375 580.5 C84.89483829 576.07797964 83.6996887 572.10529208 84 567 C83.01 566.67 82.02 566.34 81 566 C80.05078125 563.6015625 80.05078125 563.6015625 79.3125 560.625 C79.06113281 559.64789062 78.80976562 558.67078125 78.55078125 557.6640625 C78 555 78 555 78 552 C77.34 552 76.68 552 76 552 C73.0819073 547.94975112 71.54190795 543.40729055 69.875 538.75 C68.50335496 534.02179517 68.50335496 534.02179517 66 530 C65.95919217 528.00041636 65.95745644 525.99954746 66 524 C63.15071609 523.18998796 60.61729385 522.87221419 57.65869808 522.86298561 C56.79218528 522.85791107 55.92567247 522.85283653 55.0329017 522.84760821 C53.61185195 522.84686157 53.61185195 522.84686157 52.16209412 522.84609985 C51.15215568 522.8417176 50.14221725 522.83733535 49.10167462 522.8328203 C45.70767378 522.81943429 42.3136989 522.81325399 38.91967773 522.80712891 C36.49048749 522.79922814 34.06129842 522.7909592 31.6321106 522.78234863 C24.33819705 522.75839983 17.04428177 522.74320644 9.7503427 522.73028857 C7.69092004 522.72657571 5.63149806 522.7226026 3.57207608 522.7185359 C-9.21443972 522.69330929 -22.00095661 522.6712547 -34.7874918 522.65880775 C-37.74724392 522.65587806 -40.70699601 522.65291638 -43.66674805 522.64990234 C-44.77019741 522.64878327 -44.77019741 522.64878327 -45.89593869 522.64764158 C-57.82770493 522.63497257 -69.75932269 522.6017259 -81.69101942 522.56010051 C-93.93710594 522.51772762 -106.18311628 522.49411854 -118.42927593 522.48888719 C-125.30684479 522.48546885 -132.18418112 522.47366346 -139.06167793 522.44078445 C-145.5254263 522.40993369 -151.98887966 522.40434079 -158.45269394 522.41616821 C-160.8299746 522.41639011 -163.20727338 522.40798975 -165.58448982 522.39051437 C-168.81985072 522.36801724 -172.05371235 522.37602746 -175.28907776 522.39199829 C-176.23867498 522.3781162 -177.18827221 522.36423412 -178.16664511 522.34993136 C-180.55149367 522.37911568 -182.68253918 522.4377163 -185 523 C-187.13761458 525.47356037 -187.78239899 527.12959596 -188.5625 530.25 C-188.706875 530.8275 -188.85125 531.405 -189 532 C-189.66 532.33 -190.32 532.66 -191 533 C-191.65772428 536.02934491 -191.65772428 536.02934491 -192 539 C-192.66 539 -193.32 539 -194 539 C-194.103125 539.680625 -194.20625 540.36125 -194.3125 541.0625 C-195.14184126 544.60604903 -196.511774 547.68011124 -198 551 C-200.33453161 556.25269613 -202.24216151 561.53587553 -204 567 C-204.33 567.99 -204.66 568.98 -205 570 C-205.66 570 -206.32 570 -207 570 C-207.061875 570.928125 -207.12375 571.85625 -207.1875 572.8125 C-207.82544887 577.32370983 -209.71259888 581.12333311 -211.66796875 585.203125 C-213.24917189 588.5231879 -214.63608461 591.90920155 -216.0078125 595.3203125 C-217 597 -217 597 -220 598 C-219.896875 598.94875 -219.79375 599.8975 -219.6875 600.875 C-219.63294589 606.18857028 -222.45863005 610.48906833 -225 615 C-225.66 615 -226.32 615 -227 615 C-227.33 617.64 -227.66 620.28 -228 623 C-228.66 623 -229.32 623 -230 623 C-229.9175 624.175625 -229.835 625.35125 -229.75 626.5625 C-229.72430893 631.4095491 -231.47033474 633.93720427 -234 638 C-234.77485832 640.77138597 -234.77485832 640.77138597 -235 643 C-235.66 643 -236.32 643 -237 643 C-237.061875 643.928125 -237.12375 644.85625 -237.1875 645.8125 C-237.81756192 650.38044893 -239.81931576 654.20467175 -241.7890625 658.33203125 C-243.23603491 661.52003821 -244.17038941 664.60613851 -245 668 C-245.66 668 -246.32 668 -247 668 C-247.12375 668.886875 -247.2475 669.77375 -247.375 670.6875 C-247.94412736 673.70387502 -248.76614436 676.20326054 -250 679 C-250.66 679 -251.32 679 -252 679 C-252.12375 679.845625 -252.2475 680.69125 -252.375 681.5625 C-253.02770327 685.15236798 -253.95247463 688.50824875 -255 692 C-254.28972656 692.12117187 -253.57945312 692.24234375 -252.84765625 692.3671875 C-251.92855469 692.53476562 -251.00945312 692.70234375 -250.0625 692.875 C-249.14597656 693.03742187 -248.22945313 693.19984375 -247.28515625 693.3671875 C-246.53105469 693.57601562 -245.77695312 693.78484375 -245 694 C-244.67 694.66 -244.34 695.32 -244 696 C-241.49055338 696.83947153 -241.49055338 696.83947153 -238.5625 697.5 C-233.21783877 698.78216123 -233.21783877 698.78216123 -231 701 C-228.93125966 701.6425235 -228.93125966 701.6425235 -227 702 C-227 702.66 -227 703.32 -227 704 C-225.989375 704.103125 -224.97875 704.20625 -223.9375 704.3125 C-219.89144098 705.01895475 -216.7491152 706.36402246 -213 708 C-211 708.33333333 -209 708.66666667 -207 709 C-206.67 709.66 -206.34 710.32 -206 711 C-203.42562419 711.91280138 -203.42562419 711.91280138 -200.4375 712.625 C-198.91962891 713.01558594 -198.91962891 713.01558594 -197.37109375 713.4140625 C-196.58863281 713.60742188 -195.80617188 713.80078125 -195 714 C-195 714.99 -195 715.98 -195 717 C-193.7625 716.87625 -193.7625 716.87625 -192.5 716.75 C-188.57123246 717.03062625 -186.30978299 718.1336758 -182.9296875 720.02734375 C-180.73576741 721.22195235 -180.73576741 721.22195235 -177 722 C-177 726.62 -177 731.24 -177 736 C-201.75565069 736.02332606 -226.51129974 736.04097773 -251.26695919 736.05181217 C-262.76057743 736.05697575 -274.25418886 736.06401963 -285.74780273 736.07543945 C-295.76175187 736.08538439 -305.77569608 736.09185297 -315.78965002 736.09408849 C-321.09545443 736.09539593 -326.40124471 736.09848381 -331.7070446 736.10573006 C-336.69490771 736.11248728 -341.68275081 736.11461757 -346.67061806 736.11310768 C-348.50690189 736.11338414 -350.34318635 736.11539102 -352.17946625 736.11920547 C-354.67520616 736.12413808 -357.17086924 736.1229999 -359.66661072 736.12025452 C-360.40297805 736.12316736 -361.13934539 736.1260802 -361.89802688 736.12908131 C-366.88587879 736.11412121 -366.88587879 736.11412121 -368 735 C-368.07258946 732.81360547 -368.08373783 730.62499611 -368.0625 728.4375 C-368.05347656 727.23996094 -368.04445313 726.04242187 -368.03515625 724.80859375 C-368.01775391 723.41833984 -368.01775391 723.41833984 -368 722 C-367.28972656 721.73445312 -366.57945312 721.46890625 -365.84765625 721.1953125 C-364.92855469 720.84210937 -364.00945312 720.48890625 -363.0625 720.125 C-362.14597656 719.77695312 -361.22945312 719.42890625 -360.28515625 719.0703125 C-357.85058944 718.2180914 -357.85058944 718.2180914 -357 716 C-354.67284 715.62599214 -352.33882138 715.29235267 -350 715 C-349.67 714.67 -349.34 714.34 -349 714 C-346.66702567 713.95907063 -344.33294775 713.95758277 -342 714 C-342 713.34 -342 712.68 -342 712 C-335.18501626 709.00140715 -329.61021724 706.69559131 -322 707 C-322 706.01 -322 705.02 -322 704 C-319.69 704 -317.38 704 -315 704 C-315 703.34 -315 702.68 -315 702 C-310.38 701.01 -305.76 700.02 -301 699 C-301 698.34 -301 697.68 -301 697 C-298.69 697 -296.38 697 -294 697 C-294 696.01 -294 695.02 -294 694 C-292.35 694 -290.7 694 -289 694 C-289 693.34 -289 692.68 -289 692 C-287.35 691.67 -285.7 691.34 -284 691 C-283.86335938 690.30390625 -283.72671875 689.6078125 -283.5859375 688.890625 C-282.96644294 685.83445184 -282.32128343 682.78968897 -281.625 679.75 C-281.27308594 678.16445312 -281.27308594 678.16445312 -280.9140625 676.546875 C-280.46160156 675.28617188 -280.46160156 675.28617188 -280 674 C-279.01 673.67 -278.02 673.34 -277 673 C-277.0825 672.13375 -277.165 671.2675 -277.25 670.375 C-276.93983349 666.18775209 -275.40151882 664.39037952 -273 661 C-272.29373761 659.01363702 -271.63106429 657.01151741 -271 655 C-269.26252198 650.78661579 -267.53252223 646.79878334 -265 643 C-264.40260055 640.95294775 -263.86590017 638.88766892 -263.375 636.8125 C-263.11460937 635.72582031 -262.85421875 634.63914062 -262.5859375 633.51953125 C-262.39257812 632.68808594 -262.19921875 631.85664062 -262 631 C-261.01 631 -260.02 631 -259 631 C-259.0825 630.154375 -259.165 629.30875 -259.25 628.4375 C-258.97156539 624.60902409 -257.98826156 622.82477648 -256.01171875 619.6484375 C-254.70414277 617.51794691 -253.85822709 615.3458207 -253 613 C-252.50089677 611.66633072 -252.00081907 610.33302589 -251.5 609 C-251.24347656 608.31035156 -250.98695313 607.62070312 -250.72265625 606.91015625 C-250.15464369 605.40876089 -249.55233472 603.92033667 -248.9375 602.4375 C-247.89583156 599.8567958 -247.89583156 599.8567958 -247.0625 596.5 C-246.06019998 593.19830581 -244.7918473 590.91175186 -243 588 C-242.31974363 586.00458132 -241.65509503 584.00382009 -241 582 C-239.14630974 577.52786834 -237.10592698 573.17036687 -234.875 568.875 C-233.0834098 565.32654034 -232.01181879 561.85755915 -231 558 C-230.29905456 555.68524994 -229.59012639 553.37290832 -228.875 551.0625 C-228.52179688 549.91910156 -228.16859375 548.77570312 -227.8046875 547.59765625 C-227.53914062 546.74042969 -227.27359375 545.88320313 -227 545 C-226.01 545 -225.02 545 -224 545 C-224 543.35 -224 541.7 -224 540 C-223.34 539.67 -222.68 539.34 -222 539 C-221.08719862 536.42562419 -221.08719862 536.42562419 -220.375 533.4375 C-220.11460937 532.42558594 -219.85421875 531.41367187 -219.5859375 530.37109375 C-219.29589844 529.19740234 -219.29589844 529.19740234 -219 528 C-218.01 528 -217.02 528 -216 528 C-216.0825 526.989375 -216.165 525.97875 -216.25 524.9375 C-215.93993653 520.05400033 -214.55841831 518.10897487 -212 514 C-211.23959428 511.73014106 -211.23959428 511.73014106 -211 510 C-210.34 510 -209.68 510 -209 510 C-209 507.69 -209 505.38 -209 503 C-208.01 503 -207.02 503 -206 503 C-205.67 501.35 -205.34 499.7 -205 498 C-204.34 498 -203.68 498 -203 498 C-203 496.02 -203 494.04 -203 492 C-202.01 491.67 -201.02 491.34 -200 491 C-200 489.35 -200 487.7 -200 486 C-199.34 486 -198.68 486 -198 486 C-198.061875 485.319375 -198.12375 484.63875 -198.1875 483.9375 C-197.94627648 480.15833152 -196.54491845 477.44635655 -195 474 C-194.25415149 471.68108918 -193.62498524 469.35571361 -193 467 C-192.34 467 -191.68 467 -191 467 C-191.04125 466.21625 -191.0825 465.4325 -191.125 464.625 C-191 462 -191 462 -189 460 C-188.43186077 458.10241497 -187.94189542 456.18089087 -187.5 454.25 C-186.51346792 450.0835295 -185.45627594 446.03276415 -184 442 C-183.01 442 -182.02 442 -181 442 C-180.1558062 438.02022924 -179.55312735 434.02992782 -179 430 C-178.01 430 -177.02 430 -176 430 C-176.0825 429.154375 -176.165 428.30875 -176.25 427.4375 C-175.97052938 423.59477903 -174.95303523 421.85354542 -172.95703125 418.6796875 C-171.72718475 416.5211814 -171.29720492 414.45194058 -171 412 C-170.34 412 -169.68 412 -169 412 C-169.0825 410.9275 -169.165 409.855 -169.25 408.75 C-168.9517583 404.27637453 -168.12267255 403.93898593 -165 401 C-163.72234735 397.36456099 -163.72234735 397.36456099 -163 394 C-162.34 394 -161.68 394 -161 394 C-161 391.69 -161 389.38 -161 387 C-160.34 387 -159.68 387 -159 387 C-158.87367188 386.43667969 -158.74734375 385.87335938 -158.6171875 385.29296875 C-157.96299619 382.86252383 -157.09046027 380.63634042 -156.125 378.3125 C-154.20730432 373.60224748 -152.54449289 368.84409132 -151 364 C-150.01 364 -149.02 364 -148 364 C-148 361.69 -148 359.38 -148 357 C-147.34 357 -146.68 357 -146 357 C-145.80664062 356.20335937 -145.61328125 355.40671875 -145.4140625 354.5859375 C-142.82776801 344.06151142 -142.82776801 344.06151142 -141 339 C-140.34 339 -139.68 339 -139 339 C-138.9175 337.9275 -138.835 336.855 -138.75 335.75 C-137.91036879 331.55184393 -136.95040818 330.85820792 -134 328 C-133.19684346 324.85518209 -133.19684346 324.85518209 -133 322 C-132.01 322 -131.02 322 -130 322 C-130.061875 321.154375 -130.12375 320.30875 -130.1875 319.4375 C-129.96441475 315.34760382 -128.74850533 312.69128904 -127 309 C-125.1178172 304.70862321 -123.45225028 300.45356752 -122 296 C-120.88429245 292.97165095 -119.56417882 290.1616929 -118.0625 287.3125 C-115.72278605 282.72946482 -114.33975409 277.95303027 -113 273 C-112.34 273 -111.68 273 -111 273 C-110.89042969 272.35933594 -110.78085937 271.71867187 -110.66796875 271.05859375 C-109.53940592 264.90196236 -107.87438422 259.63297637 -104.98828125 254.0390625 C-102.76808687 249.73072992 -101.1770973 245.70838918 -100 241 C-99.34 241 -98.68 241 -98 241 C-98.04125 240.278125 -98.0825 239.55625 -98.125 238.8125 C-97.98913607 235.75556157 -97.36326842 233.72653683 -96 231 C-95.34 230.67 -94.68 230.34 -94 230 C-93.31526605 227.67190457 -92.65146849 225.33762223 -92 223 C-91.484375 221.989375 -90.96875 220.97875 -90.4375 219.9375 C-88.95207171 216.90205958 -88.3974175 214.33830703 -88 211 C-87.34 211 -86.68 211 -86 211 C-86 209.02 -86 207.04 -86 205 C-85.34 205 -84.68 205 -84 205 C-84 203.02 -84 201.04 -84 199 C-83.34 198.67 -82.68 198.34 -82 198 C-81.34444881 195.47266765 -81.34444881 195.47266765 -81 193 C-80.01 193 -79.02 193 -78 193 C-78.0825 191.96875 -78.165 190.9375 -78.25 189.875 C-78 186 -78 186 -76.1875 183.3125 C-73.60205531 179.39739803 -72.22001208 175.55003637 -70.75 171.125 C-70.481875 170.34125 -70.21375 169.5575 -69.9375 168.75 C-69.28392514 166.83595933 -68.64086832 164.91833251 -68 163 C-67.34 163 -66.68 163 -66 163 C-66.061875 161.576875 -66.061875 161.576875 -66.125 160.125 C-66 157 -66 157 -64 155 C-63.05060582 152.42517245 -62.16591948 149.85629706 -61.3125 147.25 C-58.89709965 140.09977513 -55.95493066 133.51557584 -52.41796875 126.85546875 C-51.25077573 124.50500568 -50.47720462 122.55955205 -50 120 C-49.34 120 -48.68 120 -48 120 C-48.0928125 118.453125 -48.0928125 118.453125 -48.1875 116.875 C-47.98548629 112.70004992 -46.96802541 110.62116675 -45 107 C-44.30092586 104.26427415 -44.30092586 104.26427415 -44 102 C-43.01 102 -42.02 102 -41 102 C-40.87625 100.96875 -40.7525 99.9375 -40.625 98.875 C-40.06110186 95.37883154 -39.21317941 92.31602373 -38 89 C-37.01 89 -36.02 89 -35 89 C-35 87.68 -35 86.36 -35 85 C-34.01 85 -33.02 85 -32 85 C-32 82.69 -32 80.38 -32 78 C-31.34 78 -30.68 78 -30 78 C-29.896875 77.175 -29.79375 76.35 -29.6875 75.5 C-29.04991461 72.25411076 -28.09452271 69.35200409 -26.890625 66.27734375 C-24.40602623 59.92418111 -22.10445126 53.48872473 -20 47 C-19.34 47 -18.68 47 -18 47 C-17.896875 45.948125 -17.79375 44.89625 -17.6875 43.8125 C-17 40 -17 40 -15.5859375 37.68359375 C-13.19310718 33.63464196 -12.22265144 29.27150637 -10.96484375 24.765625 C-10 22 -10 22 -8 21 C-7.16245004 19.27505358 -7.16245004 19.27505358 -6.4921875 17.18359375 C-6.22792969 16.41982422 -5.96367187 15.65605469 -5.69140625 14.86914062 C-5.28728516 13.66547852 -5.28728516 13.66547852 -4.875 12.4375 C-4.59785156 11.63119141 -4.32070313 10.82488281 -4.03515625 9.99414062 C-3.3502052 7.99833499 -2.67425584 5.99944421 -2 4 C-1.34 4 -0.68 4 0 4 C0 2.68 0 1.36 0 0 Z " fill="#442727" transform="translate(510,132)"/>
<path d="M0 0 C1.9375 0.75 1.9375 0.75 3.9375 1.75 C3.9375 4.39 3.9375 7.03 3.9375 9.75 C4.5975 9.75 5.2575 9.75 5.9375 9.75 C6.13085938 10.36488281 6.32421875 10.97976563 6.5234375 11.61328125 C6.91402344 12.82564453 6.91402344 12.82564453 7.3125 14.0625 C7.56773437 14.86300781 7.82296875 15.66351563 8.0859375 16.48828125 C8.92581811 18.97724528 8.92581811 18.97724528 10.9375 21.75 C11.0625 24.4375 11.0625 24.4375 10.9375 26.75 C12.4225 27.245 12.4225 27.245 13.9375 27.75 C14.040625 28.78125 14.14375 29.8125 14.25 30.875 C14.73950422 34.72993247 14.73950422 34.72993247 16.5 37.8125 C18.09282038 41.06739382 18.19280455 43.17573623 17.9375 46.75 C18.5975 46.75 19.2575 46.75 19.9375 46.75 C19.9375 48.73 19.9375 50.71 19.9375 52.75 C20.55367187 52.99363281 21.16984375 53.23726563 21.8046875 53.48828125 C24.40845985 55.02860812 24.92793872 56.16783569 26.0625 58.9375 C26.3925 59.73542969 26.7225 60.53335938 27.0625 61.35546875 C27.83704245 63.47508716 28.48483061 65.57020064 29.0625 67.75 C29.495625 69.235 29.495625 69.235 29.9375 70.75 C30.5975 71.08 31.2575 71.41 31.9375 71.75 C33.90558719 74.81146896 34.13740835 77.15164967 33.9375 80.75 C34.9275 80.75 35.9175 80.75 36.9375 80.75 C36.9375 83.06 36.9375 85.37 36.9375 87.75 C37.5975 87.75 38.2575 87.75 38.9375 87.75 C38.9375 89.4 38.9375 91.05 38.9375 92.75 C39.5975 92.75 40.2575 92.75 40.9375 92.75 C40.9375 95.06 40.9375 97.37 40.9375 99.75 C41.9275 100.08 42.9175 100.41 43.9375 100.75 C43.9375 102.4 43.9375 104.05 43.9375 105.75 C44.5975 105.75 45.2575 105.75 45.9375 105.75 C46.30875 107.173125 46.30875 107.173125 46.6875 108.625 C49.05147654 117.38743128 49.05147654 117.38743128 53.9375 124.75 C55.23456991 128.64120974 55.9375 131.62806318 55.9375 135.75 C56.9275 135.75 57.9175 135.75 58.9375 135.75 C59.06125 136.719375 59.185 137.68875 59.3125 138.6875 C59.51875 139.698125 59.725 140.70875 59.9375 141.75 C60.5975 142.08 61.2575 142.41 61.9375 142.75 C61.9375 143.74 61.9375 144.73 61.9375 145.75 C62.5975 145.75 63.2575 145.75 63.9375 145.75 C64.16536458 147.80078125 64.39322917 149.8515625 64.62109375 151.90234375 C64.75636614 153.76140229 64.75636614 153.76140229 65.9375 154.75 C65.97830783 156.74958364 65.98004356 158.75045254 65.9375 160.75 C66.9275 161.08 67.9175 161.41 68.9375 161.75 C71.17814723 164.07363416 71.90306146 165.24490144 72.125 168.5 C72.063125 169.2425 72.00125 169.985 71.9375 170.75 C72.5975 170.75 73.2575 170.75 73.9375 170.75 C73.9375 173.06 73.9375 175.37 73.9375 177.75 C74.9275 178.08 75.9175 178.41 76.9375 178.75 C78.45910014 182.3537898 78.9375 184.80220686 78.9375 188.75 C79.9275 188.75 80.9175 188.75 81.9375 188.75 C82.08445312 190.0184375 82.08445312 190.0184375 82.234375 191.3125 C83.16258525 198.35409502 84.55234338 203.54387953 87.9375 209.75 C87.9375 211.07 87.9375 212.39 87.9375 213.75 C89.2575 214.08 90.5775 214.41 91.9375 214.75 C93.13037411 218.62684087 93.9375 221.66621923 93.9375 225.75 C94.9275 226.08 95.9175 226.41 96.9375 226.75 C97.81640625 228.7109375 97.81640625 228.7109375 98.5 231.125 C99.38762686 234.20411239 100.11974782 236.02337172 101.9375 238.75 C102.76558077 241.30462917 103.45584901 243.8804113 104.15625 246.47265625 C104.80672513 248.91215534 104.80672513 248.91215534 106.9375 250.75 C108.45768696 254.55046739 109.17811997 257.65946058 108.9375 261.75 C109.9275 262.08 110.9175 262.41 111.9375 262.75 C111.9375 264.73 111.9375 266.71 111.9375 268.75 C112.5975 268.75 113.2575 268.75 113.9375 268.75 C113.9375 270.07 113.9375 271.39 113.9375 272.75 C38.6975 272.75 -36.5425 272.75 -114.0625 272.75 C-113.28347118 266.51776946 -112.87844075 263.62591998 -110.3125 258.375 C-109.77753906 257.26125 -109.24257813 256.1475 -108.69140625 255 C-107.67430799 252.97068166 -106.64279809 250.94844728 -105.58984375 248.9375 C-103.05559368 244.09065439 -101.42019886 240.23471582 -101.0625 234.75 C-100.0725 234.42 -99.0825 234.09 -98.0625 233.75 C-98.124375 233.09 -98.18625 232.43 -98.25 231.75 C-98.03665818 228.33653094 -97.06016236 225.8338006 -95.796875 222.6875 C-94.93360456 220.40993543 -94.43808749 218.15375992 -94.0625 215.75 C-93.0725 215.75 -92.0825 215.75 -91.0625 215.75 C-91.0625 213.44 -91.0625 211.13 -91.0625 208.75 C-90.0725 208.75 -89.0825 208.75 -88.0625 208.75 C-88.0625 207.1 -88.0625 205.45 -88.0625 203.75 C-87.4025 203.75 -86.7425 203.75 -86.0625 203.75 C-85.89427734 202.46222656 -85.89427734 202.46222656 -85.72265625 201.1484375 C-85.03601836 197.6136744 -83.92955313 194.67396876 -82.5 191.375 C-82.04496094 190.31539062 -81.58992188 189.25578125 -81.12109375 188.1640625 C-80.77175781 187.36742187 -80.42242187 186.57078125 -80.0625 185.75 C-79.4025 185.75 -78.7425 185.75 -78.0625 185.75 C-78.10375 184.88375 -78.145 184.0175 -78.1875 183.125 C-78.05666589 179.59247915 -77.42347499 177.00121803 -76.0625 173.75 C-75.4025 173.42 -74.7425 173.09 -74.0625 172.75 C-73.36812253 170.75945124 -72.70639782 168.75744615 -72.0625 166.75 C-71.5675 165.780625 -71.0725 164.81125 -70.5625 163.8125 C-68.94483552 160.74336992 -68.94483552 160.74336992 -68.0625 157.1875 C-67.10671063 153.90197403 -65.81698373 151.64871226 -64.0625 148.75 C-63.35579272 146.05745009 -63.35579272 146.05745009 -63.0625 143.75 C-62.0725 143.75 -61.0825 143.75 -60.0625 143.75 C-60.124375 142.739375 -60.18625 141.72875 -60.25 140.6875 C-60.03607173 136.19500628 -59.01636468 133.73914039 -57.0625 129.75 C-56.4025 129.75 -55.7425 129.75 -55.0625 129.75 C-54.92972656 129.05519531 -54.79695313 128.36039063 -54.66015625 127.64453125 C-54.02147084 124.55129014 -53.27393636 121.49959602 -52.5 118.4375 C-52.23058594 117.36886719 -51.96117187 116.30023438 -51.68359375 115.19921875 C-51.47863281 114.39097656 -51.27367187 113.58273437 -51.0625 112.75 C-50.0725 112.75 -49.0825 112.75 -48.0625 112.75 C-47.85753906 111.96753906 -47.65257812 111.18507813 -47.44140625 110.37890625 C-47.17199219 109.36699219 -46.90257812 108.35507812 -46.625 107.3125 C-46.35816406 106.30316406 -46.09132813 105.29382813 -45.81640625 104.25390625 C-45.0625 101.75 -45.0625 101.75 -44.0625 100.75 C-43.8459375 99.1721875 -43.8459375 99.1721875 -43.625 97.5625 C-43.1094677 94.06833663 -42.27207019 91.05615851 -41.0625 87.75 C-40.0725 87.75 -39.0825 87.75 -38.0625 87.75 C-38.145 86.88375 -38.2275 86.0175 -38.3125 85.125 C-38.00233349 80.93775209 -36.46401882 79.14037952 -34.0625 75.75 C-32.33252717 71.47059354 -31.61140577 67.32421472 -31.0625 62.75 C-30.0725 62.42 -29.0825 62.09 -28.0625 61.75 C-27.918125 60.821875 -27.77375 59.89375 -27.625 58.9375 C-27.0625 55.75 -27.0625 55.75 -26.0625 52.75 C-25.4025 52.42 -24.7425 52.09 -24.0625 51.75 C-23.33174352 49.4359378 -22.66111742 47.10171131 -22.0625 44.75 C-21.4025 44.75 -20.7425 44.75 -20.0625 44.75 C-20.145 44.069375 -20.2275 43.38875 -20.3125 42.6875 C-20.03286676 39.40180945 -18.85380559 37.66041643 -17.14453125 34.90625 C-15.34226351 31.31472728 -14.61780128 27.47274656 -13.72265625 23.57421875 C-13.01802092 20.55971375 -12.11379673 17.66128326 -11.0625 14.75 C-10.0725 14.75 -9.0825 14.75 -8.0625 14.75 C-8.0625 12.44 -8.0625 10.13 -8.0625 7.75 C-7.0725 7.75 -6.0825 7.75 -5.0625 7.75 C-5.124375 6.986875 -5.18625 6.22375 -5.25 5.4375 C-5.0625 2.75 -5.0625 2.75 -3.8125 0.875 C-2.0625 -0.25 -2.0625 -0.25 0 0 Z " fill="#FDFDFD" transform="translate(449.0625,357.25)"/>
<path d="M0 0 C31.39824765 -0.04560472 62.79648655 -0.08100877 94.19475944 -0.10213066 C97.89985921 -0.10463213 101.60495892 -0.10722077 105.31005859 -0.10986328 C106.0476912 -0.1103879 106.78532381 -0.11091252 107.54530892 -0.11145304 C119.49599101 -0.1201606 131.4466539 -0.1359325 143.39732459 -0.15430559 C155.65571723 -0.17299489 167.91409979 -0.18411467 180.17250609 -0.18817699 C187.73933039 -0.19092406 195.30610043 -0.19960699 202.87290803 -0.21583293 C208.67075137 -0.22763384 214.46855978 -0.2289138 220.26641273 -0.22621536 C222.64809568 -0.22676719 225.0297806 -0.23076662 227.41145134 -0.23841095 C230.65501313 -0.24831408 233.89833988 -0.24598578 237.14190674 -0.24050903 C238.0913196 -0.24633472 239.04073246 -0.2521604 240.01891541 -0.25816262 C241.32145977 -0.25218947 241.32145977 -0.25218947 242.65031815 -0.24609566 C243.39912664 -0.2468551 244.14793513 -0.24761454 244.91943479 -0.24839699 C247.29866542 0.03565742 248.93042159 0.82084755 251 2 C251 3.65 251 5.3 251 7 C250.67 5.68 250.34 4.36 250 3 C167.17 3 84.34 3 -1 3 C-0.67 2.01 -0.34 1.02 0 0 Z " fill="#C8C0C0" transform="translate(325,654)"/>
<path d="M0 0 C0.66 0 1.32 0 2 0 C2 1.32 2 2.64 2 4 C77.24 4 152.48 4 230 4 C230 4.66 230 5.32 230 6 C200.98825033 6.17303373 171.97645934 6.33584524 142.96457303 6.48431293 C139.5422996 6.5018354 136.12002662 6.51944535 132.69775391 6.53710938 C131.67575059 6.54238223 131.67575059 6.54238223 130.63310073 6.5477616 C119.58958901 6.60494756 108.54612933 6.66922692 97.50267257 6.736111 C86.17771151 6.80454273 74.85273207 6.86524001 63.52769077 6.91914403 C57.16379378 6.94968136 50.79995997 6.98379051 44.43613052 7.02626419 C38.45268861 7.06608882 32.4692732 7.09660182 26.48574448 7.11981392 C24.28381209 7.13002652 22.0818928 7.14371089 19.88000488 7.16103554 C16.8853831 7.18409052 13.89096556 7.194921 10.89627075 7.20254517 C9.57430496 7.21712011 9.57430496 7.21712011 8.22563279 7.2319895 C2.22824242 7.22824242 2.22824242 7.22824242 0 5 C-0.125 2.375 -0.125 2.375 0 0 Z " fill="#745F5F" transform="translate(333,626)"/>
<path d="M0 0 C81.84 0 163.68 0 248 0 C248 0.33 248 0.66 248 1 C246.7297935 1.00054477 245.459587 1.00108953 244.1508894 1.00165081 C214.01857125 1.01568607 183.88640681 1.05539821 153.75417523 1.12685562 C150.04778717 1.13562268 146.34139864 1.14417243 142.63500977 1.15258789 C141.52816739 1.15510648 141.52816739 1.15510648 140.39896456 1.15767596 C128.44114351 1.18436712 116.48337039 1.19344255 104.52552261 1.19604143 C92.26141634 1.19909772 79.99744896 1.22100669 67.73340541 1.26052457 C60.16191387 1.2843244 52.59069935 1.29330734 45.01917551 1.28351311 C39.21947353 1.27758357 33.42009495 1.29784662 27.62047958 1.32806015 C25.23678176 1.33633353 22.85303684 1.33599664 20.46934319 1.32659721 C17.22493774 1.31506601 13.98211994 1.33395565 10.73783875 1.36076355 C9.78551304 1.35009029 8.83318734 1.33941703 7.85200328 1.32842034 C5.46099841 1.36550817 3.32236482 1.43141145 1 2 C-1.15171587 4.48520158 -1.79798091 6.09091411 -2.5 9.25 C-2.665 9.8275 -2.83 10.405 -3 11 C-3.99 11.33 -4.98 11.66 -6 12 C-6 11.34 -6 10.68 -6 10 C-5.34 10 -4.68 10 -4 10 C-4 8.02 -4 6.04 -4 4 C-3.01 3.67 -2.02 3.34 -1 3 C-0.67 2.01 -0.34 1.02 0 0 Z " fill="#593F3F" transform="translate(324,653)"/>
<path d="M0 0 C0.33 0 0.66 0 1 0 C1 4.62 1 9.24 1 14 C-18.52302763 14.02312447 -38.0460514 14.04098205 -57.56908989 14.05181217 C-66.63346701 14.05697389 -75.69783547 14.06401423 -84.76220703 14.07543945 C-92.66043132 14.08539008 -100.55864935 14.09185434 -108.45687973 14.09408849 C-112.6409782 14.09539495 -116.82505873 14.09847675 -121.00915146 14.10573006 C-124.94396372 14.11249623 -128.87875059 14.11461573 -132.81356812 14.11310768 C-134.2608059 14.11338374 -135.70804449 14.11538533 -137.15527725 14.11920547 C-139.12514895 14.12415195 -141.09503414 14.12239538 -143.06491089 14.12025452 C-144.16921888 14.12117631 -145.27352688 14.1220981 -146.41129875 14.12304783 C-149 14 -149 14 -151 13 C-152.87056791 12.7724985 -154.74685958 12.59037189 -156.625 12.4375 C-157.62789062 12.35371094 -158.63078125 12.26992188 -159.6640625 12.18359375 C-160.82035156 12.09271484 -160.82035156 12.09271484 -162 12 C-162 11.67 -162 11.34 -162 11 C-155.73 11 -149.46 11 -143 11 C-143 11.66 -143 12.32 -143 13 C-95.81 13 -48.62 13 0 13 C0 8.71 0 4.42 0 0 Z " fill="#776161" transform="translate(889,854)"/>
<path d="M0 0 C1 2 1 2 0.25 4.75 C-1 8 -1 8 -2.5625 10.9375 C-4.15085791 14.32139293 -4.49502495 17.3208961 -5 21 C-5.66 21.33 -6.32 21.66 -7 22 C-7.85156732 24.81775155 -8.47363693 27.66024146 -9.12109375 30.53125 C-9.41113281 31.3459375 -9.70117188 32.160625 -10 33 C-11.485 33.495 -11.485 33.495 -13 34 C-13 35.65 -13 37.3 -13 39 C-13.66 39 -14.32 39 -15 39 C-15 41.31 -15 43.62 -15 46 C-15.99 46.495 -15.99 46.495 -17 47 C-17.66 47.99 -18.32 48.98 -19 50 C-18.25749403 45.91621717 -17.17076699 41.98060777 -16 38 C-15.34 38 -14.68 38 -14 38 C-14.12375 36.9790625 -14.12375 36.9790625 -14.25 35.9375 C-13.96533955 32.59273968 -12.70608227 30.71996061 -10.95703125 27.9140625 C-9.34769977 24.69539953 -9.2499852 21.56228911 -9 18 C-8.34 18 -7.68 18 -7 18 C-7.020625 17.05125 -7.04125 16.1025 -7.0625 15.125 C-7 12 -7 12 -6 10 C-5.34 10 -4.68 10 -4 10 C-3.79503906 9.36191406 -3.59007812 8.72382812 -3.37890625 8.06640625 C-3.10949219 7.24011719 -2.84007812 6.41382813 -2.5625 5.5625 C-2.29566406 4.73878906 -2.02882813 3.91507813 -1.75390625 3.06640625 C-1 1 -1 1 0 0 Z " fill="#AEA1A1" transform="translate(289,737)"/>
<path d="M0 0 C0.66 0.33 1.32 0.66 2 1 C1.57835981 2.98260599 1.13721222 4.96107245 0.6875 6.9375 C0.44386719 8.03964844 0.20023437 9.14179688 -0.05078125 10.27734375 C-0.36402344 11.17582031 -0.67726563 12.07429687 -1 13 C-1.99 13.33 -2.98 13.66 -4 14 C-4.12375 15.03125 -4.2475 16.0625 -4.375 17.125 C-4.93889814 20.62116846 -5.78682059 23.68397627 -7 27 C-7.66 27 -8.32 27 -9 27 C-9 28.65 -9 30.3 -9 32 C-9.66 32 -10.32 32 -11 32 C-11 34.31 -11 36.62 -11 39 C-12.485 39.495 -12.485 39.495 -14 40 C-14.73323796 42.01508358 -14.73323796 42.01508358 -15 44 C-15.66 43.67 -16.32 43.34 -17 43 C-16.72285156 42.46890625 -16.44570313 41.9378125 -16.16015625 41.390625 C-15.79792969 40.68421875 -15.43570312 39.9778125 -15.0625 39.25 C-14.70285156 38.55390625 -14.34320313 37.8578125 -13.97265625 37.140625 C-13.04441818 35.09775567 -12.46833422 33.18884624 -12 31 C-11.34 31 -10.68 31 -10 31 C-10.0928125 29.453125 -10.0928125 29.453125 -10.1875 27.875 C-9.98548629 23.70004992 -8.96802541 21.62116675 -7 18 C-6.30092586 15.26427415 -6.30092586 15.26427415 -6 13 C-5.01 13 -4.02 13 -3 13 C-2.87625 11.96875 -2.7525 10.9375 -2.625 9.875 C-2.06110186 6.37883154 -1.21317941 3.31602373 0 0 Z " fill="#9C8C8C" transform="translate(472,221)"/>
<path d="M0 0 C0.66 0 1.32 0 2 0 C4.15305957 3.85756507 5.39253254 6.55129785 5 11 C5.66 11 6.32 11 7 11 C7.50833591 12.24663331 8.00631145 13.49749387 8.5 14.75 C8.7784375 15.44609375 9.056875 16.1421875 9.34375 16.859375 C10 19 10 19 10 23 C10.66 23 11.32 23 12 23 C13.32 27.62 14.64 32.24 16 37 C13 36 13 36 11.8125 33.875 C10.85468741 30.48581699 10.86253798 27.50528139 11 24 C10.34 24 9.68 24 9 24 C7.74335022 21.09399739 7 19.20395416 7 16 C6.01 15.67 5.02 15.34 4 15 C1.75073417 9.98240699 0.56749167 5.44792005 0 0 Z " fill="#D9D3D3" transform="translate(639,364)"/>
<path d="M0 0 C0.33 0 0.66 0 1 0 C1 2.64 1 5.28 1 8 C0.01 8 -0.98 8 -2 8 C-2.144375 8.721875 -2.28875 9.44375 -2.4375 10.1875 C-2.95833333 12.79166667 -3.47916667 15.39583333 -4 18 C-4.66 18 -5.32 18 -6 18 C-6.33 20.31 -6.66 22.62 -7 25 C-7.66 25 -8.32 25 -9 25 C-8.938125 26.175625 -8.938125 26.175625 -8.875 27.375 C-9 30 -9 30 -11 32 C-11.6425235 34.06874034 -11.6425235 34.06874034 -12 36 C-12.66 36 -13.32 36 -14 36 C-14.33 36.99 -14.66 37.98 -15 39 C-15 37.68 -15 36.36 -15 35 C-14.34 35 -13.68 35 -13 35 C-13 33.02 -13 31.04 -13 29 C-12.34 29 -11.68 29 -11 29 C-11 27.02 -11 25.04 -11 23 C-10.34 22.67 -9.68 22.34 -9 22 C-8.34444881 19.47266765 -8.34444881 19.47266765 -8 17 C-7.01 17 -6.02 17 -5 17 C-5.0825 15.96875 -5.165 14.9375 -5.25 13.875 C-4.95841016 9.35535748 -3.63477298 7.59287224 -1 4 C-0.23060319 1.77397385 -0.23060319 1.77397385 0 0 Z " fill="#A89A9A" transform="translate(437,308)"/>
<path d="M0 0 C1 2 1 2 0.0625 5.125 C-0.288125 6.07375 -0.63875 7.0225 -1 8 C-1.66 8 -2.32 8 -3 8 C-2.95875 8.78375 -2.9175 9.5675 -2.875 10.375 C-3 13 -3 13 -5 15 C-5.64767793 17.57061311 -5.64767793 17.57061311 -6 20 C-6.66 20 -7.32 20 -8 20 C-7.979375 20.94875 -7.95875 21.8975 -7.9375 22.875 C-8 26 -8 26 -9 28 C-9.66 28 -10.32 28 -11 28 C-11 29.65 -11 31.3 -11 33 C-11.66 33 -12.32 33 -13 33 C-13.33 34.32 -13.66 35.64 -14 37 C-14.39622401 32.77361053 -13.27688086 29.77921271 -11.734375 25.9375 C-10.87110456 23.65993543 -10.37558749 21.40375992 -10 19 C-9.01 19 -8.02 19 -7 19 C-7 16.69 -7 14.38 -7 12 C-6.01 12 -5.02 12 -4 12 C-4 10.35 -4 8.7 -4 7 C-3.34 7 -2.68 7 -2 7 C-1.855625 6.030625 -1.71125 5.06125 -1.5625 4.0625 C-1 1 -1 1 0 0 Z " fill="#BDB3B3" transform="translate(365,554)"/>
<path d="M0 0 C0 0.99 0 1.98 0 3 C-2.31 3 -4.62 3 -7 3 C-7 3.66 -7 4.32 -7 5 C-11.92984325 7.03993514 -15.57960425 8.40652968 -21 8 C-21 8.66 -21 9.32 -21 10 C-23.31 10 -25.62 10 -28 10 C-28 10.99 -28 11.98 -28 13 C-30.64 13.33 -33.28 13.66 -36 14 C-35.67 13.01 -35.34 12.02 -35 11 C-33.02 11 -31.04 11 -29 11 C-29 10.34 -29 9.68 -29 9 C-27.02 9 -25.04 9 -23 9 C-23 8.34 -23 7.68 -23 7 C-21.865625 6.87625 -20.73125 6.7525 -19.5625 6.625 C-17.7990625 6.315625 -17.7990625 6.315625 -16 6 C-15.67 5.34 -15.34 4.68 -15 4 C-13.02 4 -11.04 4 -9 4 C-9 3.34 -9 2.68 -9 2 C-2.25 0 -2.25 0 0 0 Z " fill="#AFA2A2" transform="translate(216,826)"/>
<path d="M0 0 C0.33 0 0.66 0 1 0 C1.125 2.375 1.125 2.375 1 5 C0.34 5.66 -0.32 6.32 -1 7 C-1.60713803 8.85483454 -2.14131052 10.73421385 -2.625 12.625 C-2.88539063 13.62789062 -3.14578125 14.63078125 -3.4140625 15.6640625 C-3.60742188 16.43492187 -3.80078125 17.20578125 -4 18 C-4.66 18 -5.32 18 -6 18 C-6 19.65 -6 21.3 -6 23 C-6.66 23.33 -7.32 23.66 -8 24 C-8.165 24.99 -8.33 25.98 -8.5 27 C-8.665 27.99 -8.83 28.98 -9 30 C-9.66 30.33 -10.32 30.66 -11 31 C-11.65213292 33.02463255 -11.65213292 33.02463255 -12 35 C-12.66 34.67 -13.32 34.34 -14 34 C-13.34 32.35 -12.68 30.7 -12 29 C-11.34 29 -10.68 29 -10 29 C-10.04125 28.13375 -10.0825 27.2675 -10.125 26.375 C-9.99542279 22.87641532 -9.23980344 20.25448403 -8 17 C-7.34 17 -6.68 17 -6 17 C-5.87625 15.96875 -5.7525 14.9375 -5.625 13.875 C-5.06110186 10.37883154 -4.21317941 7.31602373 -3 4 C-2.01 4 -1.02 4 0 4 C0 2.68 0 1.36 0 0 Z " fill="#A79A99" transform="translate(316,600)"/>
<path d="M0 0 C3.8063457 0.67170806 7.35206816 1.72746564 11 3 C11 3.66 11 4.32 11 5 C13.31 5 15.62 5 18 5 C18.33 5.99 18.66 6.98 19 8 C20.423125 7.938125 20.423125 7.938125 21.875 7.875 C25 8 25 8 27 10 C28.94151362 10.38403123 28.94151362 10.38403123 31.0625 10.5 C32.361875 10.665 33.66125 10.83 35 11 C35.495 11.99 35.495 11.99 36 13 C34.37419034 12.88601335 32.74932843 12.75844341 31.125 12.625 C30.22007812 12.55539062 29.31515625 12.48578125 28.3828125 12.4140625 C26 12 26 12 24 10 C22.96875 9.855625 21.9375 9.71125 20.875 9.5625 C17.20963487 9.03043087 14.33864856 8.11968188 10.93359375 6.765625 C8.32508685 5.73276166 5.66743259 4.86691559 3 4 C3 3.01 3 2.02 3 1 C2.01 0.67 1.02 0.34 0 0 Z " fill="#9D8E8E" transform="translate(690,852)"/>
<path d="M0 0 C0.33 0 0.66 0 1 0 C1 1.65 1 3.3 1 5 C0.01 5.495 0.01 5.495 -1 6 C-1.20498608 7.6057243 -1.40632189 9.21199365 -1.58984375 10.8203125 C-2.53147395 15.82440444 -4.37329746 21.37329746 -8 25 C-8.39764263 26.98821313 -8.73775349 28.98944339 -9 31 C-9.99 31 -10.98 31 -12 31 C-12 33.64 -12 36.28 -12 39 C-13.485 39.495 -13.485 39.495 -15 40 C-14.33333333 36.66666667 -13.66666667 33.33333333 -13 30 C-12.01 30 -11.02 30 -10 30 C-10.0825 29.13375 -10.165 28.2675 -10.25 27.375 C-9.93983349 23.18775209 -8.40151882 21.39037952 -6 18 C-4.27002717 13.72059354 -3.54890577 9.57421472 -3 5 C-2.01 4.67 -1.02 4.34 0 4 C0 2.68 0 1.36 0 0 Z " fill="#A59797" transform="translate(421,415)"/>
<path d="M0 0 C0.66 0 1.32 0 2 0 C2 1.32 2 2.64 2 4 C21.305 4.495 21.305 4.495 41 5 C41 5.33 41 5.66 41 6 C35.48277042 6.19208189 29.96533332 6.37083263 24.44726562 6.53710938 C22.56921744 6.5955953 20.69128003 6.65775641 18.81347656 6.72363281 C16.11804368 6.81756025 13.42249184 6.89836718 10.7265625 6.9765625 C9.88380768 7.00875885 9.04105286 7.0409552 8.17276001 7.0741272 C6.11571159 7.12728029 4.05643769 7.073058 2 7 C0 5 0 5 -0.125 2.375 C-0.08375 1.59125 -0.0425 0.8075 0 0 Z " fill="#624949" transform="translate(333,626)"/>
<path d="M0 0 C0.28875 0.639375 0.5775 1.27875 0.875 1.9375 C1.82823451 4.15206079 1.82823451 4.15206079 4 5 C4 6.65 4 8.3 4 10 C4.66 10 5.32 10 6 10 C8.21854707 14.62197306 9.38281159 17.76824163 9 23 C9.99 23.33 10.98 23.66 12 24 C12.33 26.31 12.66 28.62 13 31 C12.01 30.34 11.02 29.68 10 29 C9.8125 26.375 9.8125 26.375 10 24 C9.34 24 8.68 24 8 24 C8 22.02 8 20.04 8 18 C7.01 18 6.02 18 5 18 C5 15.69 5 13.38 5 11 C4.34 11 3.68 11 3 11 C3 10.01 3 9.02 3 8 C2.01 8 1.02 8 0 8 C0 5.36 0 2.72 0 0 Z " fill="#BEB4B4" transform="translate(733,587)"/>
<path d="M0 0 C10.89 0 21.78 0 33 0 C33 0.33 33 0.66 33 1 C31.56950317 1.00616333 31.56950317 1.00616333 30.11010742 1.01245117 C26.57049571 1.03422966 23.03199775 1.08850301 19.49291992 1.15258789 C17.96145302 1.17577965 16.42982637 1.19016644 14.89819336 1.19555664 C12.69543788 1.20483892 10.4951986 1.24580268 8.29296875 1.29296875 C7.60849167 1.2890361 6.92401459 1.28510345 6.21879578 1.28105164 C4.03829756 1.2938424 4.03829756 1.2938424 1 2 C-0.95723364 4.44436955 -1.82523949 6.21357768 -2.5 9.25 C-2.665 9.8275 -2.83 10.405 -3 11 C-3.99 11.33 -4.98 11.66 -6 12 C-6 11.34 -6 10.68 -6 10 C-5.34 10 -4.68 10 -4 10 C-4 8.02 -4 6.04 -4 4 C-3.01 3.67 -2.02 3.34 -1 3 C-0.67 2.01 -0.34 1.02 0 0 Z " fill="#5D4343" transform="translate(324,653)"/>
<path d="M0 0 C2.82059747 1.41029874 2.98101714 3.07891581 4 6 C4.35858516 7.32676508 4.7018576 8.65835921 5 10 C5.66 10 6.32 10 7 10 C7.26554688 10.99902344 7.53109375 11.99804688 7.8046875 13.02734375 C8.16103998 14.33084361 8.51783368 15.6342229 8.875 16.9375 C9.04902344 17.59685547 9.22304688 18.25621094 9.40234375 18.93554688 C9.87476237 20.641503 10.43215028 22.32339261 11 24 C11.66 24.33 12.32 24.66 13 25 C13 26.65 13 28.3 13 30 C7.75873387 24.57154579 6.05987632 17.41515704 3.875 10.375 C3.24847093 7.83895402 3.24847093 7.83895402 1 7 C0.59270772 4.67843403 0.25561323 2.3431213 0 0 Z " fill="#BDB2B2" transform="translate(581,674)"/>
<path d="M0 0 C0.625 1.875 0.625 1.875 1 4 C0.34 4.66 -0.32 5.32 -1 6 C-1.69437747 7.99054876 -2.35610218 9.99255385 -3 12 C-3.7734375 13.7325 -3.7734375 13.7325 -4.5625 15.5 C-5.89360868 18.74096028 -6.5778872 21.53867501 -7 25 C-7.99 25 -8.98 25 -10 25 C-10 26.98 -10 28.96 -10 31 C-10.66 31.33 -11.32 31.66 -12 32 C-11.67 29.36 -11.34 26.72 -11 24 C-10.34 24 -9.68 24 -9 24 C-9 22.02 -9 20.04 -9 18 C-8.01 17.67 -7.02 17.34 -6 17 C-6.0825 16.34 -6.165 15.68 -6.25 15 C-5.89705107 10.76461278 -4.00727332 7.68488497 -2 4 C-1.32870775 2.66898951 -0.6607077 1.33629621 0 0 Z " fill="#B3A7A7" transform="translate(387,429)"/>
<path d="M0 0 C0.33 0 0.66 0 1 0 C1 1.65 1 3.3 1 5 C0.34 5 -0.32 5 -1 5 C-1 6.98 -1 8.96 -1 11 C-1.99 11 -2.98 11 -4 11 C-3.938125 11.680625 -3.87625 12.36125 -3.8125 13.0625 C-4.05868263 16.91936125 -5.35802162 19.51079594 -7 23 C-7.66 23 -8.32 23 -9 23 C-9.33 24.32 -9.66 25.64 -10 27 C-10.51326523 21.61071507 -9.06999794 19.33411474 -6 15 C-5.29373761 13.01363702 -4.63106429 11.01151741 -4 9 C-2.7189134 5.97603976 -1.36693115 2.98601465 0 0 Z " fill="#9F9090" transform="translate(243,778)"/>
<path d="M0 0 C0.33 1.32 0.66 2.64 1 4 C0.34 4 -0.32 4 -1 4 C-1 5.65 -1 7.3 -1 9 C-1.99 9.33 -2.98 9.66 -4 10 C-4 11.98 -4 13.96 -4 16 C-4.66 16 -5.32 16 -6 16 C-6.33 18.64 -6.66 21.28 -7 24 C-7.66 24 -8.32 24 -9 24 C-9 24.99 -9 25.98 -9 27 C-9.66 26.67 -10.32 26.34 -11 26 C-10.01 22.535 -10.01 22.535 -9 19 C-8.34 19 -7.68 19 -7 19 C-7.061875 17.9171875 -7.061875 17.9171875 -7.125 16.8125 C-6.98913607 13.75556157 -6.36326842 11.72653683 -5 9 C-4.34 8.67 -3.68 8.34 -3 8 C-2.29508733 5.67793475 -1.62787571 3.34406932 -1 1 C-0.67 0.67 -0.34 0.34 0 0 Z " fill="#847070" transform="translate(419,354)"/>
<path d="M0 0 C0.33 0 0.66 0 1 0 C1 2.64 1 5.28 1 8 C0.34 8 -0.32 8 -1 8 C-1.185625 8.804375 -1.185625 8.804375 -1.375 9.625 C-2.12206016 12.4638286 -3.05303364 15.22223202 -4 18 C-4.99 18 -5.98 18 -7 18 C-6.34 15.36 -5.68 12.72 -5 10 C-4.34 10 -3.68 10 -3 10 C-2.814375 8.3603125 -2.814375 8.3603125 -2.625 6.6875 C-2 3 -2 3 0 0 Z " fill="#756060" transform="translate(374,461)"/>
<path d="M0 0 C0.66 0.33 1.32 0.66 2 1 C1.67 3.31 1.34 5.62 1 8 C0.34 8 -0.32 8 -1 8 C-0.979375 8.94875 -0.95875 9.8975 -0.9375 10.875 C-1 14 -1 14 -2 16 C-2.66 16 -3.32 16 -4 16 C-4 17.65 -4 19.3 -4 21 C-4.66 21 -5.32 21 -6 21 C-6.33 22.32 -6.66 23.64 -7 25 C-7.39622401 20.77361053 -6.27688086 17.77921271 -4.734375 13.9375 C-3.87110456 11.65993543 -3.37558749 9.40375992 -3 7 C-2.01 7 -1.02 7 0 7 C0 4.69 0 2.38 0 0 Z " fill="#AA9C9C" transform="translate(441,365)"/>
<path d="M0 0 C0.33 0 0.66 0 1 0 C1 2.31 1 4.62 1 7 C0.01 7 -0.98 7 -2 7 C-1.95875 7.845625 -1.9175 8.69125 -1.875 9.5625 C-2.01535028 13.42213269 -2.82780164 16.33688013 -4 20 C-4.66 20 -5.32 20 -6 20 C-6.33 21.65 -6.66 23.3 -7 25 C-7.66 24.67 -8.32 24.34 -9 24 C-7.68 20.04 -6.36 16.08 -5 12 C-4.34 12 -3.68 12 -3 12 C-3.04125 11.05125 -3.0825 10.1025 -3.125 9.125 C-3 6 -3 6 -1 4 C-0.3574765 1.93125966 -0.3574765 1.93125966 0 0 Z " fill="#988888" transform="translate(447,283)"/>
<path d="M0 0 C0.66 1.32 1.32 2.64 2 4 C2.66 4 3.32 4 4 4 C6.28571429 12.42857143 6.28571429 12.42857143 6 17 C6.99 17 7.98 17 9 17 C9.33 19.64 9.66 22.28 10 25 C9.34 24.67 8.68 24.34 8 24 C8 22.02 8 20.04 8 18 C7.01 18 6.02 18 5 18 C3.19769832 14.17010894 2.80377759 11.21878192 3 7 C2.01 6.67 1.02 6.34 0 6 C0 4.02 0 2.04 0 0 Z " fill="#B1A5A5" transform="translate(602,275)"/>
<path d="M0 0 C0.28875 0.598125 0.5775 1.19625 0.875 1.8125 C2.04742026 4.19327792 2.04742026 4.19327792 4 7 C4 8.32 4 9.64 4 11 C4.66 11 5.32 11 6 11 C6 12.65 6 14.3 6 16 C6.99 16 7.98 16 9 16 C9 18.64 9 21.28 9 24 C8.67 24 8.34 24 8 24 C7.731875 23.113125 7.46375 22.22625 7.1875 21.3125 C6.07868507 18.21948994 4.69177578 15.79510781 3 13 C2.66666667 11.66666667 2.33333333 10.33333333 2 9 C1.34 8.67 0.68 8.34 0 8 C0 5.36 0 2.72 0 0 Z " fill="#867373" transform="translate(793,731)"/>
<path d="M0 0 C0.33 0 0.66 0 1 0 C1 2.64 1 5.28 1 8 C0.01 8 -0.98 8 -2 8 C-1.938125 8.680625 -1.87625 9.36125 -1.8125 10.0625 C-2.05868263 13.91936125 -3.35802162 16.51079594 -5 20 C-5.66 20 -6.32 20 -7 20 C-7 21.65 -7 23.3 -7 25 C-7.66 24.67 -8.32 24.34 -9 24 C-7.84646734 19.47460262 -6.43495237 15.9567976 -4 12 C-3.28293018 10.01751285 -2.61709587 8.01584651 -2 6 C-1.33333333 4 -0.66666667 2 0 0 Z " fill="#A09191" transform="translate(271,708)"/>
<path d="M0 0 C0.66 0 1.32 0 2 0 C2.33 1.65 2.66 3.3 3 5 C3.66 5 4.32 5 5 5 C5 7.31 5 9.62 5 12 C5.66 12 6.32 12 7 12 C7.99 15.3 8.98 18.6 10 22 C8.68 21.34 7.36 20.68 6 20 C6 18.02 6 16.04 6 14 C5.34 14 4.68 14 4 14 C2.66666667 9.33333333 1.33333333 4.66666667 0 0 Z " fill="#A69898" transform="translate(463,390)"/>
<path d="M0 0 C0.99 0 1.98 0 3 0 C3.27714844 0.85464844 3.55429687 1.70929688 3.83984375 2.58984375 C4.20207031 3.69457031 4.56429687 4.79929688 4.9375 5.9375 C5.29714844 7.03964844 5.65679688 8.14179688 6.02734375 9.27734375 C6.73856668 11.88123475 6.73856668 11.88123475 8 13 C8.45459858 15.65463121 8.70243238 18.32189138 9 21 C8.34 21 7.68 21 7 21 C6.87625 19.88625 6.7525 18.7725 6.625 17.625 C6.3534187 13.96896323 6.3534187 13.96896323 4 12 C4 11.01 4 10.02 4 9 C3.34 9 2.68 9 2 9 C2 7.02 2 5.04 2 3 C1.34 3 0.68 3 0 3 C0 2.01 0 1.02 0 0 Z " fill="#B1A5A5" transform="translate(565,189)"/>
<path d="M0 0 C0.33 0.66 0.66 1.32 1 2 C0.32695928 3.64894976 -0.35629332 5.29467987 -1.09765625 6.9140625 C-2.65650764 10.51764105 -3.80519574 14.26305902 -5 18 C-5.66 18 -6.32 18 -7 18 C-7.25 14.75 -7.25 14.75 -7 11 C-5.125 8.9375 -5.125 8.9375 -3 7 C-1.79950593 3.89992799 -1.79950593 3.89992799 -1 1 C-0.67 0.67 -0.34 0.34 0 0 Z " fill="#B3A7A7" transform="translate(297,719)"/>
<path d="M0 0 C2.26274788 0.35355436 3.95088852 0.97544426 6 2 C6 4.64 6 7.28 6 10 C5.731875 9.38125 5.46375 8.7625 5.1875 8.125 C4.04443152 5.7004767 4.04443152 5.7004767 1 4 C-0.32 4.99 -1.64 5.98 -3 7 C-2.25 2.25 -2.25 2.25 0 0 Z " fill="#B9AEAE" transform="translate(447,357)"/>
<path d="M0 0 C6.27 0 12.54 0 19 0 C19 0.66 19 1.32 19 2 C20.98 2 22.96 2 25 2 C25 2.33 25 2.66 25 3 C23.04174127 3.02694851 21.08337774 3.04637218 19.125 3.0625 C17.48917969 3.07990234 17.48917969 3.07990234 15.8203125 3.09765625 C13 3 13 3 11 2 C9.12943209 1.7724985 7.25314042 1.59037189 5.375 1.4375 C4.37210938 1.35371094 3.36921875 1.26992188 2.3359375 1.18359375 C1.56507813 1.12300781 0.79421875 1.06242188 0 1 C0 0.67 0 0.34 0 0 Z " fill="#8C7979" transform="translate(727,865)"/>
<path d="M0 0 C2 0 2 0 3.625 1 C5.82559052 4.20085893 5.18792122 7.17893517 5 11 C5.66 11 6.32 11 7 11 C7 13.31 7 15.62 7 18 C6.56880859 17.12988281 6.56880859 17.12988281 6.12890625 16.2421875 C5.42441036 14.84294654 4.70539428 13.45081047 3.96484375 12.0703125 C1.83489997 8.03718701 0.46089362 4.60893622 0 0 Z " fill="#A09191" transform="translate(531,553)"/>
<path d="M0 0 C4 4.5 4 4.5 4 9 C4.66 9 5.32 9 6 9 C7.46939453 13.30322683 8.77443263 17.62297367 10 22 C9.34 22 8.68 22 8 22 C5.58314288 17.77050005 4.65166856 14.87664009 5 10 C4.01 9.67 3.02 9.34 2 9 C0.29466783 5.67908998 0 3.81507216 0 0 Z " fill="#A69797" transform="translate(821,799)"/>
<path d="M0 0 C0.33 0.66 0.66 1.32 1 2 C0.34 2 -0.32 2 -1 2 C-1 4.31 -1 6.62 -1 9 C-1.99 9 -2.98 9 -4 9 C-3.938125 9.721875 -3.87625 10.44375 -3.8125 11.1875 C-4.03523932 14.52858974 -5.1282246 16.27032755 -7 19 C-8.18414294 15.44757118 -7.69535532 14.30169438 -6.5625 10.8125 C-6.27503906 9.91144531 -5.98757813 9.01039063 -5.69140625 8.08203125 C-5.46324219 7.39496094 -5.23507812 6.70789063 -5 6 C-4.01 6 -3.02 6 -2 6 C-2 4.35 -2 2.7 -2 1 C-1.34 0.67 -0.68 0.34 0 0 Z " fill="#A19392" transform="translate(288,671)"/>
<path d="M0 0 C0.33 0 0.66 0 1 0 C1 2.64 1 5.28 1 8 C0.01 8 -0.98 8 -2 8 C-2.144375 8.721875 -2.28875 9.44375 -2.4375 10.1875 C-2.95833333 12.79166667 -3.47916667 15.39583333 -4 18 C-4.66 18 -5.32 18 -6 18 C-6.33 18.66 -6.66 19.32 -7 20 C-7 19.01 -7 18.02 -7 17 C-6.34 17 -5.68 17 -5 17 C-5.0825 15.96875 -5.165 14.9375 -5.25 13.875 C-4.95841016 9.35535748 -3.63477298 7.59287224 -1 4 C-0.23060319 1.77397385 -0.23060319 1.77397385 0 0 Z " fill="#8C7A7A" transform="translate(437,308)"/>
<path d="M0 0 C0.66 0 1.32 0 2 0 C2.33 1.65 2.66 3.3 3 5 C3.66 5 4.32 5 5 5 C5 7.64 5 10.28 5 13 C5.99 13 6.98 13 8 13 C8.33 15.31 8.66 17.62 9 20 C5.93430172 17.07365164 4.12543157 14.96761499 3.5625 10.625 C2.99408928 6.9619087 2.00303482 5.04809646 0 2 C0 1.34 0 0.68 0 0 Z " fill="#A59796" transform="translate(681,466)"/>
<path d="M0 0 C0.33 0 0.66 0 1 0 C1.042721 1.66611905 1.04063832 3.33382885 1 5 C0.67 5.33 0.34 5.66 0 6 C-0.24261665 8.25543624 -0.38332133 10.50945523 -0.5234375 12.7734375 C-1.08363037 15.39073204 -1.96995128 16.3173393 -4 18 C-4.66 17.67 -5.32 17.34 -6 17 C-5.37691903 15.1035351 -4.75145015 13.20785465 -4.125 11.3125 C-3.60292969 9.72888672 -3.60292969 9.72888672 -3.0703125 8.11328125 C-2.12668634 5.36850006 -1.10508711 2.68307185 0 0 Z " fill="#948383" transform="translate(454,265)"/>
<path d="M0 0 C0.66 0 1.32 0 2 0 C5.17692157 5.24882694 5.65697965 10.01488629 6 16 C3.05516354 14.52758177 2.72291553 12.17358689 1.6640625 9.2109375 C0.7422586 6.14187275 0.33172288 3.18453969 0 0 Z " fill="#B4A9A9" transform="translate(639,364)"/>
<path d="M0 0 C0.99 0 1.98 0 3 0 C3 1.65 3 3.3 3 5 C3.66 5 4.32 5 5 5 C5.103125 6.03125 5.20625 7.0625 5.3125 8.125 C5.99202908 11.95507301 7.24595824 14.57164566 9 18 C8.67 18.66 8.34 19.32 8 20 C5.28507398 17.28507398 4.57090526 14.13760325 3.4375 10.5625 C3.10588867 9.5405957 3.10588867 9.5405957 2.76757812 8.49804688 C2.17390607 6.6668107 1.58663869 4.83350142 1 3 C0.67 2.01 0.34 1.02 0 0 Z " fill="#A99B9B" transform="translate(588,244)"/>
<path d="M0 0 C0.66 0.33 1.32 0.66 2 1 C1.525625 2.175625 1.05125 3.35125 0.5625 4.5625 C-0.87642883 8.35481711 -1.44822885 11.97995306 -2 16 C-2.66 16.99 -3.32 17.98 -4 19 C-5.32 18.67 -6.64 18.34 -8 18 C-7.01 18 -6.02 18 -5 18 C-4.8659375 17.30390625 -4.731875 16.6078125 -4.59375 15.890625 C-3.9638611 12.82406064 -3.24869527 9.78970278 -2.5 6.75 C-2.2421875 5.69296875 -1.984375 4.6359375 -1.71875 3.546875 C-1 1 -1 1 0 0 Z " fill="#8D7B7B" transform="translate(231,805)"/>
<path d="M0 0 C0.33 0 0.66 0 1 0 C1 2.64 1 5.28 1 8 C0.01 8 -0.98 8 -2 8 C-2.12375 8.7425 -2.2475 9.485 -2.375 10.25 C-2.95486701 12.80141485 -3.73708739 14.7267573 -5 17 C-6.360761 12.91771701 -4.7307108 10.67869698 -3 7 C-2.43259055 5.68961494 -1.86984613 4.37719685 -1.3125 3.0625 C-0.6628125 1.5465625 -0.6628125 1.5465625 0 0 Z " fill="#8D7A7A" transform="translate(407,381)"/>
<path d="M0 0 C10.55808656 0.41002278 10.55808656 0.41002278 15 5 C14.01 4.855625 13.02 4.71125 12 4.5625 C8.00590535 3.99074821 4.00467063 3.49180166 0 3 C0 2.01 0 1.02 0 0 Z " fill="#B0A3A3" transform="translate(874,849)"/>
<path d="M0 0 C2.09749995 2.35968744 2.96905704 3.54616994 3.1875 6.75 C3.0946875 7.86375 3.0946875 7.86375 3 9 C3.99 9 4.98 9 6 9 C6 11.31 6 13.62 6 16 C5.34 16 4.68 16 4 16 C4 14.68 4 13.36 4 12 C3.34 12 2.68 12 2 12 C1.855625 10.948125 1.71125 9.89625 1.5625 8.8125 C1.12473034 5.84539451 0.62195134 2.93205634 0 0 Z " fill="#A59797" transform="translate(480,429)"/>
<path d="M0 0 C0.28875 0.639375 0.5775 1.27875 0.875 1.9375 C1.82823451 4.15206079 1.82823451 4.15206079 4 5 C4 6.65 4 8.3 4 10 C4.66 10 5.32 10 6 10 C6 11.98 6 13.96 6 16 C3.37613513 12.93882432 3 12.26826873 3 8 C2.01 8 1.02 8 0 8 C0 5.36 0 2.72 0 0 Z " fill="#B4A8A8" transform="translate(655,401)"/>
<path d="M0 0 C0.66 0 1.32 0 2 0 C1.37240135 2.92879371 0.41377341 5.36095629 -1 8 C-1.66 8 -2.32 8 -3 8 C-3 9.65 -3 11.3 -3 13 C-3.99 13.33 -4.98 13.66 -6 14 C-6 13.34 -6 12.68 -6 12 C-5.34 12 -4.68 12 -4 12 C-4 9.69 -4 7.38 -4 5 C-3.01 5 -2.02 5 -1 5 C-0.67 3.35 -0.34 1.7 0 0 Z " fill="#715B5B" transform="translate(305,630)"/>
<path d="M0 0 C0.33 0 0.66 0 1 0 C1.125 2.375 1.125 2.375 1 5 C0.34 5.66 -0.32 6.32 -1 7 C-1.309375 7.94875 -1.61875 8.8975 -1.9375 9.875 C-2.94030738 12.82443346 -4.00887882 14.64685679 -6 17 C-5.45144652 12.428721 -4.58255197 8.32564205 -3 4 C-2.01 4 -1.02 4 0 4 C0 2.68 0 1.36 0 0 Z " fill="#BCB2B2" transform="translate(316,600)"/>
<path d="M0 0 C0.33 0.99 0.66 1.98 1 3 C-0.98 3 -2.96 3 -5 3 C-5 3.66 -5 4.32 -5 5 C-7.64 5 -10.28 5 -13 5 C-13 5.66 -13 6.32 -13 7 C-13.99 6.67 -14.98 6.34 -16 6 C-15.67 5.34 -15.34 4.68 -15 4 C-12.67284 3.62599214 -10.33882138 3.29235267 -8 3 C-7.67 2.67 -7.34 2.34 -7 2 C-4.66702567 1.95907063 -2.33294775 1.95758277 0 2 C0 1.34 0 0.68 0 0 Z " fill="#8B7979" transform="translate(168,844)"/>
<path d="M0 0 C0.66 0.33 1.32 0.66 2 1 C1.34 2.98 0.68 4.96 0 7 C-0.66 7 -1.32 7 -2 7 C-1.938125 8.175625 -1.938125 8.175625 -1.875 9.375 C-2 12 -2 12 -4 14 C-4.69748583 15.31747324 -5.36959957 16.64914193 -6 18 C-6.125 15.625 -6.125 15.625 -6 13 C-5.34 12.34 -4.68 11.68 -4 11 C-3.29373761 9.01363702 -2.63106429 7.01151741 -2 5 C-1.34588315 3.32836805 -0.68346682 1.65984798 0 0 Z " fill="#AEA2A2" transform="translate(316,671)"/>
<path d="M0 0 C0.28875 0.639375 0.5775 1.27875 0.875 1.9375 C1.82823451 4.15206079 1.82823451 4.15206079 4 5 C4 6.65 4 8.3 4 10 C4.66 10 5.32 10 6 10 C6 11.98 6 13.96 6 16 C5.67 16 5.34 16 5 16 C5 14.35 5 12.7 5 11 C4.34 11 3.68 11 3 11 C3 10.01 3 9.02 3 8 C2.01 8 1.02 8 0 8 C0 5.36 0 2.72 0 0 Z " fill="#BAAFAF" transform="translate(557,167)"/>
<path d="M0 0 C1.43088528 2.86177057 0.59991697 4.93375773 0 8 C-0.66 8 -1.32 8 -2 8 C-2 9.65 -2 11.3 -2 13 C-2.99 13.33 -3.98 13.66 -5 14 C-5.33 14.99 -5.66 15.98 -6 17 C-5.39009109 13.44219804 -4.4216319 10.3171411 -3 7 C-2.34 7 -1.68 7 -1 7 C-1.020625 6.030625 -1.04125 5.06125 -1.0625 4.0625 C-1 1 -1 1 0 0 Z " fill="#CAC2C2" transform="translate(372,536)"/>
<path d="M0 0 C0.99 0 1.98 0 3 0 C1.97137215 5.44567686 0.75385216 10.11817117 -2 15 C-2.66 15 -3.32 15 -4 15 C-2.125 9.125 -2.125 9.125 -1 8 C-0.76924918 6.65252916 -0.58846937 5.29622435 -0.4375 3.9375 C-0.2209375 1.9884375 -0.2209375 1.9884375 0 0 Z " fill="#8D7B7B" transform="translate(403,455)"/>
<path d="M0 0 C2 1 2 1 3.125 3.25 C4.00513321 6.01613295 4.1645438 8.12048351 4 11 C4.66 11 5.32 11 6 11 C6 12.65 6 14.3 6 16 C2.55041549 13.33441197 2.05989657 10.08817247 1 6 C0.67 5.67 0.34 5.34 0 5 C-0.04063832 3.33382885 -0.042721 1.66611905 0 0 Z " fill="#B9AEAE" transform="translate(670,437)"/>
<path d="M0 0 C0.33 1.32 0.66 2.64 1 4 C0.34 4 -0.32 4 -1 4 C-1 6.31 -1 8.62 -1 11 C-1.99 11.33 -2.98 11.66 -4 12 C-4 13.32 -4 14.64 -4 16 C-4.66 15.67 -5.32 15.34 -6 15 C-5.525625 13.948125 -5.05125 12.89625 -4.5625 11.8125 C-3.30676259 8.89824149 -2.47765619 6.15253086 -2 3 C-1.34 3 -0.68 3 0 3 C0 2.01 0 1.02 0 0 Z " fill="#877474" transform="translate(492,176)"/>
<path d="M0 0 C3.8063457 0.67170806 7.35206816 1.72746564 11 3 C11 3.99 11 4.98 11 6 C8.36 5.34 5.72 4.68 3 4 C3 3.01 3 2.02 3 1 C2.01 0.67 1.02 0.34 0 0 Z " fill="#B9AFAF" transform="translate(690,852)"/>
<path d="M0 0 C4.93133998 1.08656644 8.78316189 2.1009238 13 5 C10.3333581 6.33332095 8.83319697 5.67102033 6 5 C6 4.34 6 3.68 6 3 C5.195625 2.87625 4.39125 2.7525 3.5625 2.625 C2.716875 2.41875 1.87125 2.2125 1 2 C0.67 1.34 0.34 0.68 0 0 Z " fill="#C4BBBB" transform="translate(277,831)"/>
<path d="M0 0 C0.33 1.32 0.66 2.64 1 4 C0.34 4 -0.32 4 -1 4 C-0.938125 4.7425 -0.87625 5.485 -0.8125 6.25 C-1.03094296 9.45383006 -1.90250005 10.64031256 -4 13 C-4.5497272 7.36529617 -2.95047835 4.61012242 0 0 Z " fill="#8A7878" transform="translate(255,750)"/>
<path d="M0 0 C0.66 0.33 1.32 0.66 2 1 C1.54625 1.86625 1.0925 2.7325 0.625 3.625 C-0.86266659 6.71476907 -1.9876431 9.72930848 -3 13 C-4.31625194 10.36749612 -3.74813658 9.19820944 -3.0625 6.375 C-2.86785156 5.55773437 -2.67320312 4.74046875 -2.47265625 3.8984375 C-2.23869141 2.95871094 -2.23869141 2.95871094 -2 2 C-1.34 2 -0.68 2 0 2 C0 1.34 0 0.68 0 0 Z " fill="#6F5858" transform="translate(378,518)"/>
<path d="M0 0 C3 2 3 2 4 5 C4.66 5.33 5.32 5.66 6 6 C6 8.31 6 10.62 6 13 C5.896875 12.360625 5.79375 11.72125 5.6875 11.0625 C5.460625 10.381875 5.23375 9.70125 5 9 C4.01 8.67 3.02 8.34 2 8 C1.26953125 6.15234375 1.26953125 6.15234375 0.8125 3.9375 C0.65394531 3.20402344 0.49539063 2.47054687 0.33203125 1.71484375 C0.22246094 1.14894531 0.11289062 0.58304688 0 0 Z " fill="#9B8C8C" transform="translate(582,231)"/>
<path d="M0 0 C0.33 0 0.66 0 1 0 C1 1.65 1 3.3 1 5 C1.99 5 2.98 5 4 5 C4.33 7.64 4.66 10.28 5 13 C4.34 12.67 3.68 12.34 3 12 C3 10.68 3 9.36 3 8 C2.01 8 1.02 8 0 8 C0 5.36 0 2.72 0 0 Z " fill="#A79999" transform="translate(831,821)"/>
<path d="M0 0 C0.66 0 1.32 0 2 0 C4.66590937 4.55426184 5.31563182 7.73946963 5 13 C4 11 4 11 3 9 C2.46375 7.989375 1.9275 6.97875 1.375 5.9375 C0 3 0 3 0 0 Z " fill="#6D5555" transform="translate(579,666)"/>
<path d="M0 0 C0.33 0 0.66 0 1 0 C1 1.65 1 3.3 1 5 C0.34 5 -0.32 5 -1 5 C-1 6.98 -1 8.96 -1 11 C-1.99 11 -2.98 11 -4 11 C-3.52269162 9.5410574 -3.04308958 8.08286504 -2.5625 6.625 C-2.29566406 5.81289063 -2.02882812 5.00078125 -1.75390625 4.1640625 C-1 2 -1 2 0 0 Z " fill="#867272" transform="translate(243,778)"/>
<path d="M0 0 C0.99 0 1.98 0 3 0 C3 2.31 3 4.62 3 7 C3.66 7 4.32 7 5 7 C5 8.98 5 10.96 5 13 C4.67 11.68 4.34 10.36 4 9 C3.34 9 2.68 9 2 9 C1.34 6.03 0.68 3.06 0 0 Z " fill="#AFA2A2" transform="translate(774,687)"/>
<path d="M0 0 C3.1166231 2.54996436 4.01692052 5.14330357 5 9 C5.125 12.375 5.125 12.375 5 15 C4.67 13.68 4.34 12.36 4 11 C3.34 11 2.68 11 2 11 C1.855625 9.9275 1.71125 8.855 1.5625 7.75 C1.16250558 5.08337051 0.72408076 2.58600271 0 0 Z " fill="#A39595" transform="translate(746,619)"/>
<path d="M0 0 C0.66 0.33 1.32 0.66 2 1 C1.525625 1.886875 1.05125 2.77375 0.5625 3.6875 C-0.79737149 6.57042756 -1.54060386 8.87610623 -2 12 C-2.33 12 -2.66 12 -3 12 C-3.125 4.25 -3.125 4.25 -2 2 C-1.34 2 -0.68 2 0 2 C0 1.34 0 0.68 0 0 Z " fill="#705959" transform="translate(431,390)"/>
<path d="M0 0 C-0.33 0.99 -0.66 1.98 -1 3 C-3.31 3 -5.62 3 -8 3 C-8 3.66 -8 4.32 -8 5 C-9.32 4.67 -10.64 4.34 -12 4 C-8.14070855 1.42713903 -4.66785662 0 0 0 Z " fill="#6A5252" transform="translate(184,839)"/>
<path d="M0 0 C1.485 0.99 1.485 0.99 3 2 C3.1875 4.625 3.1875 4.625 3 7 C3.66 7 4.32 7 5 7 C5 9.31 5 11.62 5 14 C2.77858289 9.89892226 0 4.73442329 0 0 Z " fill="#A29494" transform="translate(518,521)"/>
<path d="M0 0 C0.33 0 0.66 0 1 0 C1.61538462 7.26153846 1.61538462 7.26153846 -1.5 11 C-2.325 11.66 -3.15 12.32 -4 13 C-2.77443263 8.62297367 -1.46939453 4.30322683 0 0 Z " fill="#7F6A6A" transform="translate(359,496)"/>
<path d="M0 0 C0.66 0 1.32 0 2 0 C2 1.65 2 3.3 2 5 C2.99 5 3.98 5 5 5 C5 7.64 5 10.28 5 13 C4.67 13 4.34 13 4 13 C2.53060547 8.69677317 1.22556737 4.37702633 0 0 Z " fill="#ADA0A0" transform="translate(797,742)"/>
<path d="M0 0 C0.66 0 1.32 0 2 0 C5.42857143 7.28571429 5.42857143 7.28571429 5 12 C1.66226291 8.35883227 1.02135098 4.71392758 0 0 Z " fill="#755F5F" transform="translate(594,702)"/>
<path d="M0 0 C0.33 1.32 0.66 2.64 1 4 C0.34 4 -0.32 4 -1 4 C-1 6.31 -1 8.62 -1 11 C-1.99 11.33 -2.98 11.66 -4 12 C-3.34 9.03 -2.68 6.06 -2 3 C-1.34 3 -0.68 3 0 3 C0 2.01 0 1.02 0 0 Z " fill="#705959" transform="translate(399,402)"/>
<path d="M0 0 C2.91227269 3.28804981 4.49701212 5.59885603 5 10 C2 9 2 9 0.8125 6.6875 C0 4 0 4 0 0 Z " fill="#A59696" transform="translate(650,391)"/>
<path d="M0 0 C1.46109063 0.25554054 2.91888096 0.53000372 4.375 0.8125 C5.59316406 1.03873047 5.59316406 1.03873047 6.8359375 1.26953125 C9 2 9 2 11 5 C9.68 5 8.36 5 7 5 C7 4.34 7 3.68 7 3 C4.69 3 2.38 3 0 3 C0 2.01 0 1.02 0 0 Z " fill="#786363" transform="translate(857,844)"/>
<path d="M0 0 C0.99 0 1.98 0 3 0 C4.29243536 4.1196377 5.26252625 7.66831683 5 12 C4 10 4 10 3 8 C2.195625 6.453125 2.195625 6.453125 1.375 4.875 C0 2 0 2 0 0 Z " fill="#9C8D8D" transform="translate(804,760)"/>
<path d="M0 0 C0.33 0 0.66 0 1 0 C1 2.64 1 5.28 1 8 C0.01 8 -0.98 8 -2 8 C-2 8.66 -2 9.32 -2 10 C-2.66 9.67 -3.32 9.34 -4 9 C-3.2884375 7.88625 -3.2884375 7.88625 -2.5625 6.75 C-1.22130673 4.38949985 -0.487688 2.63351523 0 0 Z " fill="#7E6969" transform="translate(276,698)"/>
<path d="M0 0 C0.99 0 1.98 0 3 0 C2.690625 0.5775 2.38125 1.155 2.0625 1.75 C0.92256867 3.92954724 0.92256867 3.92954724 0.5625 6.1875 C0.2840625 7.0846875 0.2840625 7.0846875 0 8 C-0.99 8.33 -1.98 8.66 -3 9 C-3 8.34 -3 7.68 -3 7 C-2.34 7 -1.68 7 -1 7 C-1.020625 6.030625 -1.04125 5.06125 -1.0625 4.0625 C-1 1 -1 1 0 0 Z " fill="#7C6767" transform="translate(321,656)"/>
<path d="M0 0 C0.66 0 1.32 0 2 0 C3.42258812 3.82320557 4.24042276 6.91281305 4 11 C3.67 10.34 3.34 9.68 3 9 C2.34 9 1.68 9 1 9 C0.67 6.03 0.34 3.06 0 0 Z " fill="#948383" transform="translate(752,634)"/>
<path d="M0 0 C3.14958831 3.42346555 3.56179109 6.44262737 4 11 C2 10 2 10 0.875 7.1875 C0 4 0 4 0 0 Z " fill="#BBB0B0" transform="translate(547,590)"/>
<path d="M0 0 C0.103125 0.639375 0.20625 1.27875 0.3125 1.9375 C0.539375 2.618125 0.76625 3.29875 1 4 C1.99 4.33 2.98 4.66 4 5 C4.33 6.65 4.66 8.3 5 10 C4.34 10 3.68 10 3 10 C0.52653696 7.52653696 0.01686856 6.29238832 -0.1875 2.75 C-0.125625 1.8425 -0.06375 0.935 0 0 Z " fill="#B7ACAC" transform="translate(620,318)"/>
<path d="M0 0 C0.66 0.33 1.32 0.66 2 1 C1.67 3.31 1.34 5.62 1 8 C0.34 8 -0.32 8 -1 8 C-1.33 9.32 -1.66 10.64 -2 12 C-2.21278058 7.53160785 -1.59138085 4.17737474 0 0 Z " fill="#9F9090" transform="translate(326,574)"/>
<path d="M0 0 C3.44216672 2.6598561 3.99504674 5.90288286 5 10 C4.34 10 3.68 10 3 10 C0.96564469 6.27034861 0 4.33094958 0 0 Z " fill="#C4BBBB" transform="translate(718,552)"/>
<path d="M0 0 C3.44216672 2.6598561 3.99504674 5.90288286 5 10 C2 9 2 9 0.8125 6.6875 C0 4 0 4 0 0 Z " fill="#857171" transform="translate(811,776)"/>
<path d="M0 0 C0.33 0 0.66 0 1 0 C1.29296875 6.0546875 1.29296875 6.0546875 1 8 C0.01 8.66 -0.98 9.32 -2 10 C-1.46274105 6.62294375 -0.88935377 3.303314 0 0 Z " fill="#7C6768" transform="translate(261,733)"/>
<path d="M0 0 C3.86107457 2.57404971 3.94319692 4.61020259 5 9 C4.01 8.67 3.02 8.34 2 8 C2 6.68 2 5.36 2 4 C1.34 4 0.68 4 0 4 C0 2.68 0 1.36 0 0 Z " fill="#826E6E" transform="translate(713,543)"/>
<path d="M0 0 C0.6875 1.625 0.6875 1.625 1 4 C-0.4375 7.25 -0.4375 7.25 -2 10 C-2.33 10 -2.66 10 -3 10 C-2.25 3.375 -2.25 3.375 0 0 Z " fill="#A49595" transform="translate(374,461)"/>
<path d="M0 0 C4.42857143 5.14285714 4.42857143 5.14285714 5 9 C4.34 9 3.68 9 3 9 C2.67 7.35 2.34 5.7 2 4 C1.34 4 0.68 4 0 4 C0 2.68 0 1.36 0 0 Z " fill="#6C5555" transform="translate(665,430)"/>
<path d="M0 0 C0.66 0 1.32 0 2 0 C2.33 1.65 2.66 3.3 3 5 C3.66 5 4.32 5 5 5 C4.67 6.32 4.34 7.64 4 9 C1.3144406 6.3144406 0.93950026 3.62378672 0 0 Z " fill="#857272" transform="translate(463,390)"/>
<path d="M0 0 C0.33 1.32 0.66 2.64 1 4 C0.34 4 -0.32 4 -1 4 C-1 5.65 -1 7.3 -1 9 C-1.99 9 -2.98 9 -4 9 C-3.52418802 7.68628013 -3.04424851 6.37405454 -2.5625 5.0625 C-2.29566406 4.33160156 -2.02882813 3.60070312 -1.75390625 2.84765625 C-1 1 -1 1 0 0 Z " fill="#745E5E" transform="translate(419,354)"/>
<path d="M0 0 C3.44216672 2.6598561 3.99504674 5.90288286 5 10 C4.34 10 3.68 10 3 10 C0.96564469 6.27034861 0 4.33094958 0 0 Z " fill="#9A8A8A" transform="translate(597,265)"/>
<path d="M0 0 C1.485 0.99 1.485 0.99 3 2 C3.1875 5.625 3.1875 5.625 3 9 C3.66 9.33 4.32 9.66 5 10 C4.01 10 3.02 10 2 10 C2 8.02 2 6.04 2 4 C1.34 4 0.68 4 0 4 C0 2.68 0 1.36 0 0 Z " fill="#6E5656" transform="translate(562,183)"/>
</svg>
